<?xml version="1.0" encoding="UTF-8"?>
<svg version="1.1" xmlns="http://www.w3.org/2000/svg" width="788" height="780">
<path d="M0 0 C260.04 0 520.08 0 788 0 C788 257.4 788 514.8 788 780 C527.96 780 267.92 780 0 780 C0 522.6 0 265.2 0 0 Z " fill="#FEFEFE" transform="translate(0,0)"/>
<path d="M0 0 C260.04 0 520.08 0 788 0 C788 257.4 788 514.8 788 780 C527.96 780 267.92 780 0 780 C0 522.6 0 265.2 0 0 Z M493 10 C491.60811214 10.29315505 490.21618142 10.58610661 488.82421875 10.87890625 C479.72397281 12.81748928 470.81972948 15.00329646 462 18 C461.32453125 18.21962402 460.6490625 18.43924805 459.953125 18.66552734 C409.21932813 35.27319977 366.7883865 75.46109914 342.05859375 122.203125 C340.92517766 124.12700471 339.64172494 125.74560395 338.1875 127.4375 C335.78357921 129.69198684 335.78357921 129.69198684 336 132 C334.515 132.495 334.515 132.495 333 133 C331.9171875 134.0828125 331.9171875 134.0828125 330.8125 135.1875 C319.49343303 146.50656697 303.35544659 155.07324675 287.15698242 155.390625 C284.72284196 155.36371077 282.28886409 155.31596404 279.85546875 155.25 C277.83994077 155.22424607 275.82441173 155.1985304 273.80886078 155.17464161 C271.70303034 155.14696851 269.59750881 155.11044134 267.49185181 155.0718689 C260.27374758 154.94446543 253.05505302 154.90938968 245.8359375 154.89453125 C245.13230639 154.89294321 244.42867527 154.89135517 243.703722 154.88971901 C228.1860122 154.87269365 213.24590673 155.98304577 198 159 C197.03481445 159.18191895 196.06962891 159.36383789 195.07519531 159.55126953 C175.63818666 163.32076913 156.6320564 170.02404385 139 179 C137.84242188 179.56847656 136.68484375 180.13695312 135.4921875 180.72265625 C118.2391683 189.3843761 102.48483628 200.73913331 87.91552734 213.34326172 C86.53436515 214.53782795 85.14271835 215.72030961 83.74462891 216.89501953 C82.64320557 217.83063721 82.64320557 217.83063721 81.51953125 218.78515625 C80.50983276 219.63605835 80.50983276 219.63605835 79.47973633 220.50415039 C77.76557754 221.88629384 77.76557754 221.88629384 78 224 C77.34 224 76.68 224 76 224 C76 224.66 76 225.32 76 226 C75.34 226 74.68 226 74 226 C72.49726114 227.44683052 72.49726114 227.44683052 70.9375 229.375 C68.99651272 231.67070569 67.05892432 233.93751495 64.99609375 236.125 C35.09510889 267.84317179 13.52916649 312.46226314 7.52734375 355.50390625 C7.24490245 357.37638746 6.94161866 359.2492546 6.50976562 361.09301758 C4.28965839 371.12229231 4.60526016 381.34446779 4.625 391.5625 C4.62521149 392.56588409 4.62542297 393.56926819 4.62564087 394.60305786 C4.65894642 410.42666492 5.59922007 425.49993632 9 441 C9.22445801 442.05364746 9.44891602 443.10729492 9.68017578 444.19287109 C11.03018519 450.48442438 12.46214117 456.75173654 14 463 C14.66 463 15.32 463 16 463 C16.08636719 463.65484375 16.17273437 464.3096875 16.26171875 464.984375 C17.42876822 472.56484309 19.8430296 479.04071166 23 486 C23.28746094 486.66249756 23.57492188 487.32499512 23.87109375 488.00756836 C29.94755767 501.95791177 37.02460122 515.68948036 46 528 C46.43393066 528.60086426 46.86786133 529.20172852 47.31494141 529.82080078 C61.56516045 549.48756963 77.55701003 568.26882097 97 583 C97.52819336 583.40992188 98.05638672 583.81984375 98.60058594 584.2421875 C116.92549048 598.4400505 144.16425752 618.62486101 168 620 C168 620.66 168 621.32 168 622 C190.80036994 628.42659726 212.34274548 632.71918581 236.03686523 634.23413086 C244.28903331 634.79057839 252.02260587 635.72906298 260 638 C260.76957031 638.17917969 261.53914063 638.35835937 262.33203125 638.54296875 C278.28916704 642.82695656 293.46265831 656.91254466 301.6496582 670.79785156 C303.28095448 673.8064818 304.87013801 676.8325869 306.4375 679.875 C310.69442068 688.13626757 315.38325138 695.59442511 321 703 C321.78263653 704.09220349 322.5621049 705.18669756 323.3359375 706.28515625 C333.9791793 720.78198559 347.19747314 733.78052765 362 744 C362.54543457 744.37914551 363.09086914 744.75829102 363.65283203 745.14892578 C386.90836047 761.1685076 413.20917518 770.6411993 441 775 C442.07902588 775.17418457 443.15805176 775.34836914 444.26977539 775.52783203 C450.24227461 776.2838248 456.22027595 776.1859515 462.23046875 776.18530273 C464.46634605 776.18746742 466.70171111 776.20559924 468.9375 776.22460938 C481.65555156 776.27535213 493.9609133 774.95299974 506.375 772.0625 C507.13538574 771.88920166 507.89577148 771.71590332 508.67919922 771.53735352 C513.90221279 770.32104297 518.98433407 768.9112327 524 767 C524.62261719 766.77699219 525.24523437 766.55398438 525.88671875 766.32421875 C527.93727618 765.57969587 529.96856584 764.79522334 532 764 C532.84820313 763.67515625 533.69640625 763.3503125 534.5703125 763.015625 C549.21527547 757.18956344 562.52736317 749.59825208 575 740 C575.91910156 739.30519531 576.83820312 738.61039063 577.78515625 737.89453125 C603.04471998 718.06633174 621.95022343 691.609038 634 662 C634.49628906 660.92492187 634.99257813 659.84984375 635.50390625 658.7421875 C637.09471374 655.05206496 637.99805755 651.27242001 638.9387207 647.37402344 C642.83078562 631.42915698 649.08790158 618.51848125 661 607 C661.73089844 606.28328125 662.46179688 605.5665625 663.21484375 604.828125 C670.87378462 597.6672172 678.95602525 592.9205884 689 590 C693.67969196 588.49063457 698.27715654 586.80092272 702.875 585.0625 C704.2265625 584.55338542 705.578125 584.04427083 706.9296875 583.53515625 C707.59323242 583.28266113 708.25677734 583.03016602 708.94042969 582.77001953 C710.37281741 582.23448718 711.81157913 581.71582429 713.25488281 581.21044922 C717.36954955 580.05102361 717.36954955 580.05102361 720 577 C721.28582398 576.24432213 722.60492392 575.54480098 723.9375 574.875 C729.50196722 571.86384844 734.19302204 568.08962894 739 564 C739.83789062 563.29746094 740.67578125 562.59492187 741.5390625 561.87109375 C764.12159846 542.32985907 778.94789518 512.00758642 781.21240234 482.20458984 C783.18335867 447.87019938 772.45253446 416.90830378 749.8125 391.125 C747.75958158 388.86479661 745.6870661 386.69488944 743.5 384.5625 C728.22338032 368.90396483 720.59212102 349.81970294 720.69995117 328.04858398 C720.94036809 317.04053515 724.42841162 307.63045064 728.3203125 297.45703125 C733.66764028 283.37362536 738.00642806 269.39457205 740.54902649 254.52867126 C740.84633161 252.86164008 741.1665688 251.19851354 741.51112366 249.54060364 C742.88167943 242.76376659 743.2670428 236.32718059 743.1953125 229.42578125 C743.1924826 228.37593552 743.18965271 227.32608978 743.18673706 226.24443054 C743.1756573 222.93366466 743.15057629 219.62318233 743.125 216.3125 C743.1149544 214.05013415 743.10583134 211.78776401 743.09765625 209.52539062 C743.07575815 204.01683245 743.04240476 198.50843649 743 193 C742.34 193 741.68 193 741 193 C740.98582031 192.05382812 740.97164062 191.10765625 740.95703125 190.1328125 C740.64748646 179.93350743 738.62808748 170.91615878 735.65087891 161.18847656 C734.28889906 156.60903644 733.16665154 151.96232973 731.9921875 147.33203125 C730.91957684 143.7299175 729.54256745 140.42667661 728 137 C727.72639648 136.38261963 727.45279297 135.76523926 727.17089844 135.12915039 C720.32713141 119.78105339 712.27632562 105.33041117 702 92 C700.85724609 90.44152344 700.85724609 90.44152344 699.69140625 88.8515625 C688.74513394 74.14264255 675.4641213 61.01033145 660.65039062 50.21044922 C659.01279241 49.00938236 657.40437631 47.77611193 655.796875 46.53515625 C642.4311294 36.4034134 627.29929776 28.75722731 612 22 C610.25589844 21.195625 610.25589844 21.195625 608.4765625 20.375 C603.86258632 18.5501465 599.16702917 17.27018135 594.375 16 C593.39297607 15.73727295 592.41095215 15.4745459 591.39916992 15.20385742 C584.29525543 13.31632125 577.20550963 11.46198746 570 10 C568.78828125 9.7215625 567.5765625 9.443125 566.328125 9.15625 C554.7569844 6.75461497 543.20387207 6.73142453 531.4375 6.75 C530.6038089 6.75077545 529.7701178 6.7515509 528.91116333 6.75234985 C516.6691524 6.78529852 504.99030556 7.37857485 493 10 Z " fill="#9FECB1" transform="translate(0,0)"/>
<path d="M0 0 C7.90848371 -0.43601906 15.50402307 2.12394411 23.0546875 4.19921875 C23.0546875 4.85921875 23.0546875 5.51921875 23.0546875 6.19921875 C23.60253906 6.09222656 24.15039062 5.98523438 24.71484375 5.875 C32.87691017 4.6407363 40.1189215 6.31586748 48.0546875 8.19921875 C49.51425954 8.52892653 50.97389598 8.8583493 52.43359375 9.1875 C53.87024946 9.52278399 55.3064614 9.85997615 56.7421875 10.19921875 C57.41330566 10.35285889 58.08442383 10.50649902 58.77587891 10.66479492 C62.51928426 11.58704862 65.23557034 12.5505898 68.0546875 15.19921875 C69.85512514 22.60032263 66.9601685 31.09424757 65.1796875 38.26171875 C64.64044077 40.50255984 64.1013748 42.74344444 63.5625 44.984375 C63.17143066 46.58889526 63.17143066 46.58889526 62.77246094 48.22583008 C61.35581486 54.09431054 60.09655674 59.99484708 58.8359375 65.8984375 C58.62582031 66.88005859 58.41570312 67.86167969 58.19921875 68.87304688 C57.76713429 70.89336906 57.33747265 72.91421083 56.91015625 74.93554688 C55.86341692 79.8064167 54.71194719 84.49288821 53.0546875 89.19921875 C52.70817559 90.62890123 52.39450642 92.06701923 52.1171875 93.51171875 C51.94960938 94.37410156 51.78203125 95.23648438 51.609375 96.125 C51.19704236 98.41025202 50.81045291 100.7001794 50.4375 102.9921875 C49.04687314 111.4784227 47.234839 119.67531654 44.82104492 127.93261719 C43.65726362 131.92901488 42.70323765 135.82938116 42.0546875 139.94921875 C41.16747155 144.65390519 39.74398189 147.0838146 36.0546875 150.19921875 C31.11252214 151.05459352 27.47512104 149.72864247 22.921875 148.05859375 C18.3915861 146.70074149 13.75002434 146.0184836 9.08251953 145.28979492 C6.11160395 144.81093247 3.38024207 144.33763128 0.6015625 143.15625 C-2.46805871 142.00278804 -5.22630057 141.83861366 -8.48071289 141.61865234 C-25.35790435 140.45839768 -37.16859818 133.58095831 -48.6953125 121.32421875 C-62.82649657 105.02475776 -66.08440764 87.2381878 -65.18359375 66.25244141 C-63.68809029 47.08977101 -54.58020081 29.895816 -40.5078125 16.94921875 C-28.43210834 6.69314124 -15.7535484 1.6133152 0 0 Z " fill="#FCFDFD" transform="translate(326.9453125,416.80078125)"/>
<path d="M0 0 C11.1437632 -0.22976831 22.01752229 -0.14025526 33 2 C33.495 2.495 33.495 2.495 34 3 C33.83362704 12.25289612 32.81412948 21.5356384 32 30.75 C31.87564575 32.17832153 31.87564575 32.17832153 31.7487793 33.63549805 C31.66668213 34.53437744 31.58458496 35.43325684 31.5 36.359375 C31.4278125 37.15827148 31.355625 37.95716797 31.28125 38.78027344 C31 41 31 41 30.49780273 42.92724609 C29.86625398 45.55689246 29.70912716 48.10590253 29.53515625 50.8046875 C29.45837646 51.93849854 29.38159668 53.07230957 29.30249023 54.24047852 C29.22329346 55.43987061 29.14409668 56.6392627 29.0625 57.875 C28.48531462 66.20780615 27.77193259 74.39164609 26.44140625 82.63671875 C25.5123342 89.71575447 25.30713727 96.87118233 25 104 C25.3717334 103.4423999 25.7434668 102.8847998 26.12646484 102.31030273 C26.64934082 101.52598877 27.1722168 100.7416748 27.7109375 99.93359375 C28.29166016 99.0624292 28.87238281 98.19126465 29.47070312 97.29370117 C30.74774686 95.37829929 32.02509415 93.46309976 33.30273438 91.5480957 C36.19054856 87.21891908 39.07673617 82.88882911 41.9453125 78.546875 C53.8191257 60.59043715 53.8191257 60.59043715 57 59 C58.71104849 59.03957941 60.42028248 59.1602119 62.125 59.3125 C63.83623047 59.45945312 63.83623047 59.45945312 65.58203125 59.609375 C66.25443848 59.66931641 66.9268457 59.72925781 67.61962891 59.79101562 C71.57637246 60.13839742 75.53518793 60.46075659 79.49365234 60.7878418 C84.32942539 61.18803634 89.16472338 61.59385805 94 62 C92.80487003 65.20483901 91.52542022 67.93762436 89.53125 70.71484375 C89.04793213 71.39337402 88.56461426 72.0719043 88.06665039 72.77099609 C87.29115845 73.84341553 87.29115845 73.84341553 86.5 74.9375 C85.96173584 75.69111816 85.42347168 76.44473633 84.86889648 77.22119141 C83.25104289 79.48451485 81.62657088 81.74293588 80 84 C78.35242135 86.29041829 76.70654478 88.58204387 75.0625 90.875 C74.67046387 91.42075684 74.27842773 91.96651367 73.87451172 92.52880859 C69.63731648 98.45546482 65.54615934 104.4822182 61.46508789 110.51708984 C60.94293701 111.28617676 60.42078613 112.05526367 59.8828125 112.84765625 C59.14466309 113.93844482 59.14466309 113.93844482 58.39160156 115.05126953 C57 117 57 117 54.5546875 119.74609375 C52.74659218 121.88974196 52.74659218 121.88974196 53.08203125 124.51953125 C54.05236447 127.14149548 55.19769687 129.32180211 56.6875 131.6875 C57.22890625 132.55890625 57.7703125 133.4303125 58.328125 134.328125 C58.87984375 135.20984375 59.4315625 136.0915625 60 137 C60.98225824 138.64399011 61.96147489 140.28980169 62.9375 141.9375 C64.98348469 145.35276126 67.09208175 148.71696866 69.25 152.0625 C72.72080595 157.47940907 75.97581111 163.01007015 79.21533203 168.56689453 C82.56622288 174.30338317 86.04727548 179.94619191 89.6015625 185.55859375 C91 188 91 188 91 190 C88.89590361 190.02701408 86.79170822 190.04640223 84.6875 190.0625 C83.51574219 190.07410156 82.34398437 190.08570313 81.13671875 190.09765625 C78 190 78 190 75 189 C71.44486748 188.77192123 67.89581826 188.60695695 64.3359375 188.48242188 C60.20782998 188.29117214 56.65520452 188.11175243 53 186 C50.22535104 182.79898818 48.06689785 179.55840118 46.08203125 175.82421875 C45.55407959 174.8386499 45.02612793 173.85308105 44.48217773 172.83764648 C43.65568726 171.27832397 43.65568726 171.27832397 42.8125 169.6875 C41.65464438 167.5255066 40.49578692 165.36404944 39.3359375 163.203125 C38.7697168 162.14673828 38.20349609 161.09035156 37.62011719 160.00195312 C35.43628112 155.95547206 33.20033587 151.94022905 30.9375 147.9375 C30.59243408 147.32672607 30.24736816 146.71595215 29.8918457 146.08666992 C28.5650674 143.74442991 27.23858032 141.40318943 25.86767578 139.08642578 C23 134.20722819 23 134.20722819 23 132 C22.34 132 21.68 132 21 132 C20.95101562 132.93972656 20.90203125 133.87945312 20.8515625 134.84765625 C20.32719175 144.6941737 19.74352223 154.53747194 19.13104248 164.37887573 C19.04362123 165.79392317 18.9577264 167.20906572 18.87335205 168.6242981 C18.75307945 170.63520298 18.62666018 172.64573734 18.5 174.65625 C18.39171875 176.41678711 18.39171875 176.41678711 18.28125 178.21289062 C18 181 18 181 17 183 C9.56473399 183.14841673 2.27516483 182.69670763 -5.125 182 C-6.176875 181.90460938 -7.22875 181.80921875 -8.3125 181.7109375 C-10.87539348 181.47794718 -13.43784031 181.24090324 -16 181 C-16.21214648 172.32351626 -15.65820029 163.80463254 -14.77319336 155.1796875 C-14.56068931 153.10734211 -14.35680613 151.03428131 -14.15429688 148.9609375 C-13.15301296 138.88123062 -13.15301296 138.88123062 -12.48193359 135.01635742 C-11.93627291 131.60114071 -11.71805968 128.24664214 -11.53515625 124.79296875 C-11.45788331 123.39639186 -11.38040171 121.9998265 -11.30273438 120.60327148 C-11.24412231 119.52104813 -11.24412231 119.52104813 -11.18432617 118.41696167 C-10.59506731 107.63331785 -9.92696972 96.91531931 -8.50390625 86.203125 C-7.64531918 79.50244939 -7.20759044 72.75165084 -6.69726562 66.01733398 C-6.62056641 65.03579346 -6.54386719 64.05425293 -6.46484375 63.04296875 C-6.399021 62.16664795 -6.33319824 61.29032715 -6.26538086 60.38745117 C-6 58 -6 58 -5.49780273 56.01904297 C-4.88970476 53.55265244 -4.7309636 51.1877141 -4.5703125 48.65234375 C-4.4986084 47.58411377 -4.4269043 46.51588379 -4.35302734 45.4152832 C-4.24015381 43.69378052 -4.24015381 43.69378052 -4.125 41.9375 C-3.15420886 27.90889781 -1.65941167 13.96200382 0 0 Z " fill="#FCFDFD" transform="translate(523,364)"/>
<path d="M0 0 C2.2799375 7.13557759 4.01791508 14.28515088 5.5 21.625 C5.71358154 22.66591797 5.92716309 23.70683594 6.1472168 24.77929688 C7.85841963 33.16904296 9.47593441 41.57427151 11 50 C12.258125 49.855625 13.51625 49.71125 14.8125 49.5625 C18.47984953 49.15364621 22.1489543 48.7949241 25.82421875 48.46484375 C26.79834717 48.37710693 27.77247559 48.28937012 28.77612305 48.19897461 C29.51000244 48.13331299 30.24388184 48.06765137 31 48 C31.82030042 51.64412247 32.62979022 55.29056798 33.4375 58.9375 C33.66759766 59.95908203 33.89769531 60.98066406 34.13476562 62.03320312 C35.45540081 68.02391055 36.44567323 73.88966239 37 80 C32.718484 81.54863345 28.62933451 82.48152364 24.125 83.125 C22.97257812 83.29257812 21.82015625 83.46015625 20.6328125 83.6328125 C19.76398438 83.75398438 18.89515625 83.87515625 18 84 C19.24180229 89.16031056 20.4870222 94.31978013 21.73535156 99.47851562 C22.15913322 101.23187181 22.58199662 102.98545022 23.00390625 104.73925781 C23.61214058 107.26687311 24.22372365 109.79365853 24.8359375 112.3203125 C25.02247894 113.09867462 25.20902039 113.87703674 25.4012146 114.6789856 C26.86236052 120.68728103 28.3328877 126.42121823 31.6875 131.6875 C32.14511719 132.43386719 32.60273438 133.18023437 33.07421875 133.94921875 C36.28022879 137.36332681 39.77020115 138.78070976 44.34594727 139.23071289 C46.88383673 139.29406696 49.40005886 139.26275491 51.9375 139.1875 C52.81212891 139.17396484 53.68675781 139.16042969 54.58789062 139.14648438 C56.72553086 139.11144109 58.86284984 139.05764541 61 139 C61.84925475 142.64230906 62.67642947 146.28930514 63.5 149.9375 C63.85771484 151.46987305 63.85771484 151.46987305 64.22265625 153.03320312 C65.59688697 159.17797761 66.26257848 164.70468101 66 171 C56.07920251 172.88540043 46.3678668 174.29731371 36.25 174.3125 C35.42983398 174.31765625 34.60966797 174.3228125 33.76464844 174.328125 C28.82065096 174.27118056 24.68943274 173.57359307 20 172 C20 171.34 20 170.68 20 170 C19.05125 169.9175 18.1025 169.835 17.125 169.75 C15.578125 169.37875 15.578125 169.37875 14 169 C12.875 167 12.875 167 12 165 C11.37867188 164.86335937 10.75734375 164.72671875 10.1171875 164.5859375 C7.44545135 163.84652713 6.79445456 162.88447982 5.25 160.625 C4.60804688 159.71621094 4.60804688 159.71621094 3.953125 158.7890625 C3 157 3 157 3 154 C2.34 154 1.68 154 1 154 C-4.89147913 139.67503297 -8.64455172 125.32160666 -11.625 110.125 C-11.8415625 109.03703125 -12.058125 107.9490625 -12.28125 106.828125 C-13.2583348 101.89444989 -14.18986547 96.96424811 -15 92 C-16.02480469 92.2165625 -17.04960937 92.433125 -18.10546875 92.65625 C-19.46609241 92.93775834 -20.82677251 93.21899395 -22.1875 93.5 C-22.86103516 93.64308594 -23.53457031 93.78617187 -24.22851562 93.93359375 C-27.89290919 94.68434755 -31.26919233 95.06757689 -35 95 C-35.11069824 94.36497559 -35.22139648 93.72995117 -35.33544922 93.07568359 C-35.8439181 90.1746067 -36.35939574 87.27481687 -36.875 84.375 C-37.04902344 83.37597656 -37.22304687 82.37695312 -37.40234375 81.34765625 C-38.12197244 77.32306615 -38.83810239 73.48569283 -40.1328125 69.6015625 C-41.03090903 66.90727292 -41.1658212 64.8189604 -41 62 C-39.14874911 61.4893101 -37.29381095 60.99197934 -35.4375 60.5 C-34.40496094 60.2215625 -33.37242187 59.943125 -32.30859375 59.65625 C-28.79385065 58.95911087 -25.57399606 58.89183366 -22 59 C-22.26478149 57.98184204 -22.26478149 57.98184204 -22.53491211 56.94311523 C-28.95775986 31.98884156 -28.95775986 31.98884156 -29 19 C-29.66 19 -30.32 19 -31 19 C-32.34911472 14.10945915 -33.11704968 10.10629224 -33 5 C-29.19073796 4.15139085 -25.37716527 3.32394988 -21.5625 2.5 C-20.49322266 2.26152344 -19.42394531 2.02304687 -18.32226562 1.77734375 C-12.06678012 0.43824899 -6.39601034 -0.26902252 0 0 Z " fill="#FEFDFA" transform="translate(177,369)"/>
<path d="M0 0 C11.07237353 -0.27952696 21.74050425 1.506008 30.453125 8.8359375 C40.09231389 18.86562658 40.57657932 32.03227715 40.5078125 45.1796875 C40.50639755 46.21158203 40.5049826 47.24347656 40.50352478 48.30664062 C40.49796267 51.57685339 40.48541727 54.8469957 40.47265625 58.1171875 C40.46763635 60.34505109 40.4630743 62.57291576 40.45898438 64.80078125 C40.44800567 70.23960705 40.43130563 75.67839224 40.41015625 81.1171875 C37.9201996 82.36216583 36.22020714 82.24653122 33.4375 82.25 C31.96506836 82.25193359 31.96506836 82.25193359 30.46289062 82.25390625 C29.43486328 82.25003906 28.40683594 82.24617188 27.34765625 82.2421875 C26.31576172 82.24605469 25.28386719 82.24992187 24.22070312 82.25390625 C23.24037109 82.25261719 22.26003906 82.25132812 21.25 82.25 C20.34628662 82.24887207 19.44257324 82.24774414 18.51147461 82.24658203 C16.41015625 82.1171875 16.41015625 82.1171875 15.41015625 81.1171875 C15.2742835 78.10983236 15.19941602 75.12232125 15.1640625 72.11328125 C15.13109594 70.23892812 15.09788482 68.36457927 15.06445312 66.49023438 C15.01722805 63.53022524 14.97286372 60.57022986 14.93334961 57.61010742 C14.89335784 54.75680231 14.84184919 51.90387446 14.7890625 49.05078125 C14.78064835 48.17650986 14.77223419 47.30223846 14.76356506 46.401474 C14.63970529 40.17172085 14.50845164 33.67448501 10.41015625 28.6796875 C7.13315911 26.11953348 4.63730199 25.72364527 0.44921875 25.76171875 C-3.00328416 26.36359186 -4.53174527 28.43542281 -6.58984375 31.1171875 C-7.5371925 33.95923376 -7.73448029 35.80410929 -7.77929688 38.75634766 C-7.7960144 39.69386871 -7.81273193 40.63138977 -7.82995605 41.59732056 C-7.84353149 42.60676727 -7.85710693 43.61621399 -7.87109375 44.65625 C-7.88950317 45.6928476 -7.9079126 46.72944519 -7.92687988 47.79745483 C-8.00567891 52.24018902 -8.07349093 56.68307498 -8.14208984 61.12597656 C-8.19366563 64.36531426 -8.25096027 67.60451536 -8.30859375 70.84375 C-8.32216919 71.85724518 -8.33574463 72.87074036 -8.34973145 73.91494751 C-8.36644897 74.84616425 -8.3831665 75.77738098 -8.40039062 76.73681641 C-8.41918274 77.97233749 -8.41918274 77.97233749 -8.43835449 79.2328186 C-8.58984375 81.1171875 -8.58984375 81.1171875 -9.58984375 82.1171875 C-11.28543101 82.21650903 -12.98510122 82.24798757 -14.68359375 82.25 C-15.71355469 82.25128906 -16.74351562 82.25257813 -17.8046875 82.25390625 C-19.43083984 82.24810547 -19.43083984 82.24810547 -21.08984375 82.2421875 C-22.17394531 82.24605469 -23.25804687 82.24992187 -24.375 82.25390625 C-25.40496094 82.25261719 -26.43492187 82.25132812 -27.49609375 82.25 C-28.44806641 82.24887207 -29.40003906 82.24774414 -30.38085938 82.24658203 C-32.58984375 82.1171875 -32.58984375 82.1171875 -33.58984375 81.1171875 C-33.70093391 78.04872827 -33.7515356 74.99902925 -33.765625 71.9296875 C-33.78884462 70.01431219 -33.81296279 68.09894759 -33.83789062 66.18359375 C-33.87285625 63.1599229 -33.90225681 60.13664035 -33.91577148 57.11279297 C-33.93135954 54.19710698 -33.97166239 51.28256653 -34.015625 48.3671875 C-34.01371658 47.47620361 -34.01180817 46.58521973 -34.00984192 45.66723633 C-34.12758414 39.54852357 -35.26426343 34.34325732 -38.58984375 29.1171875 C-41.79609262 26.97968825 -42.81442478 26.82143751 -46.52734375 26.8046875 C-47.80931641 26.77955078 -47.80931641 26.77955078 -49.1171875 26.75390625 C-52.1856347 27.20472077 -53.42518088 27.89642105 -55.58984375 30.1171875 C-58.01292976 35.57266085 -57.91804555 40.87257271 -57.96875 46.73046875 C-57.98574448 47.74062546 -58.00273895 48.75078217 -58.02024841 49.79154968 C-58.07320409 53.00419955 -58.11362312 56.216837 -58.15234375 59.4296875 C-58.19623767 62.66032813 -58.24284808 65.89086795 -58.29515076 69.12138367 C-58.32717579 71.12896628 -58.35404449 73.13663875 -58.37538147 75.1443634 C-58.38887131 76.04587631 -58.40236115 76.94738922 -58.41625977 77.8762207 C-58.42577164 78.67308792 -58.43528351 79.46995514 -58.44508362 80.29096985 C-58.58984375 82.1171875 -58.58984375 82.1171875 -59.58984375 83.1171875 C-63.2288355 83.36875019 -66.88068048 83.30240976 -70.52734375 83.3046875 C-71.55537109 83.31693359 -72.58339844 83.32917969 -73.64257812 83.34179688 C-74.62419922 83.34373047 -75.60582031 83.34566406 -76.6171875 83.34765625 C-77.97444946 83.35381958 -77.97444946 83.35381958 -79.35913086 83.36010742 C-81.58984375 83.1171875 -81.58984375 83.1171875 -83.58984375 81.1171875 C-83.7828854 78.5929442 -83.85220134 76.17891227 -83.83276367 73.65405273 C-83.83466202 72.8848349 -83.83656036 72.11561707 -83.83851624 71.3230896 C-83.84222888 68.773884 -83.83151385 66.22496164 -83.8203125 63.67578125 C-83.81912097 61.90983616 -83.81866748 60.14389042 -83.81892395 58.37794495 C-83.81735829 54.67485596 -83.80906172 50.97186353 -83.7956543 47.26879883 C-83.77865192 42.51139192 -83.77484026 37.7540911 -83.77559948 32.99665737 C-83.77532817 29.34994994 -83.76985341 25.70326591 -83.76259804 22.05656624 C-83.75940603 20.30180094 -83.75744273 18.54703298 -83.75670433 16.79226494 C-83.75454708 14.34510612 -83.74581667 11.89806208 -83.73510742 9.45092773 C-83.73556061 8.71895676 -83.73601379 7.98698578 -83.73648071 7.23283386 C-83.70431872 2.23166247 -83.70431872 2.23166247 -82.58984375 1.1171875 C-80.80913129 1.02992527 -79.02501235 1.01019709 -77.2421875 1.01953125 C-76.16259766 1.02275391 -75.08300781 1.02597656 -73.97070312 1.02929688 C-72.26624023 1.04186523 -72.26624023 1.04186523 -70.52734375 1.0546875 C-68.81708008 1.06145508 -68.81708008 1.06145508 -67.07226562 1.06835938 C-64.24474024 1.08019003 -61.41731735 1.0966734 -58.58984375 1.1171875 C-58.58984375 1.7771875 -58.58984375 2.4371875 -58.58984375 3.1171875 C-58.02088379 2.79411621 -57.45192383 2.47104492 -56.86572266 2.13818359 C-53.02605078 0.41564468 -49.11756107 0.73572738 -44.96484375 0.7421875 C-44.06636719 0.74162354 -43.16789062 0.74105957 -42.2421875 0.74047852 C-35.57211 0.85120277 -30.52363189 2.0390349 -24.58984375 5.1171875 C-21.90222793 6.1868586 -21.00198273 6.28961299 -18.29296875 5.15625 C-17.4834375 4.68960938 -16.67390625 4.22296875 -15.83984375 3.7421875 C-10.30905857 0.82742334 -6.13341253 0.27752998 0 0 Z " fill="#719BBB" transform="translate(293.58984375,246.8828125)"/>
<path d="M0 0 C1.17175781 0.01353516 1.17175781 0.01353516 2.3671875 0.02734375 C2.94726562 0.03894531 3.52734375 0.05054688 4.125 0.0625 C6.32679755 5.89019351 7.35670722 11.89901057 8.5 18 C8.71696533 19.13993408 8.93393066 20.27986816 9.1574707 21.4543457 C10.79953758 30.14810074 12.34024973 38.85820394 13.78076172 47.58764648 C14.41536476 51.36115742 15.10151774 54.98049 16.15625 58.6640625 C17.29948483 62.67460403 17.87610529 66.62522621 18.4375 70.75 C21.04187714 88.86770375 24.38096036 106.84808546 28.24291992 124.73730469 C30.32894436 134.61821383 31.89722387 144.5785609 33.42578125 154.55786133 C34.57922871 162.16932136 34.57922871 162.16932136 36.33203125 169.65625 C37.12900063 173.07968496 36.92533188 174.73175409 36.125 178.0625 C31.7516647 178.90473216 27.37609034 179.73471195 23 180.5625 C21.7625 180.80097656 20.525 181.03945313 19.25 181.28515625 C17.45175781 181.62353516 17.45175781 181.62353516 15.6171875 181.96875 C13.96759033 182.28295898 13.96759033 182.28295898 12.28466797 182.60351562 C9.125 183.0625 9.125 183.0625 3.125 183.0625 C3.125 178.4425 3.125 173.8225 3.125 169.0625 C2.465 169.0625 1.805 169.0625 1.125 169.0625 C-0.1767844 162.85398978 -1.29212004 156.63443474 -2.3125 150.375 C-3.45613615 143.38004988 -4.75608272 136.43932804 -6.18359375 129.49609375 C-7.01714885 125.35657436 -7.7451811 121.20300191 -8.4453125 117.0390625 C-8.68668931 115.07055816 -8.68668931 115.07055816 -9.875 114.0625 C-10.35929001 111.3973626 -10.78907097 108.74090828 -11.1875 106.0625 C-11.7472894 102.39541566 -12.31079785 98.72890779 -12.875 95.0625 C-13.0162178 94.14303589 -13.15743561 93.22357178 -13.30293274 92.27624512 C-15.88534923 75.55398129 -18.88486421 58.93094307 -22.0625 42.3125 C-22.51790181 39.91542605 -22.9729811 37.51829081 -23.42773438 35.12109375 C-25.37097198 24.74301503 -25.37097198 24.74301503 -27.42939758 14.38763428 C-28.09568316 10.91098476 -27.93490564 7.59693282 -27.875 4.0625 C-25.16672996 3.58297335 -22.45838656 3.10386769 -19.75 2.625 C-18.98945313 2.49029297 -18.22890625 2.35558594 -17.4453125 2.21679688 C-15.94541026 1.95172795 -14.44524969 1.68811632 -12.94482422 1.42602539 C-11.17023064 1.11435167 -9.39741971 0.79255745 -7.625 0.46875 C-5.03232606 0.08574135 -2.61674046 -0.03964758 0 0 Z " fill="#FDFCFD" transform="translate(440.875,367.9375)"/>
<path d="M0 0 C1.10311523 0.08330566 2.20623047 0.16661133 3.34277344 0.25244141 C6.8604704 0.55558849 10.36566216 0.92493027 13.875 1.3125 C15.669375 1.48942383 15.669375 1.48942383 17.5 1.66992188 C18.65242187 1.79560547 19.80484375 1.92128906 20.9921875 2.05078125 C22.54462158 2.21574097 22.54462158 2.21574097 24.12841797 2.3840332 C27.35343132 3.07581255 29.41423569 3.94863672 32 6 C32.59936523 8.03027344 32.59936523 8.03027344 32.55859375 10.359375 C32.55287354 11.22038818 32.54715332 12.08140137 32.54125977 12.96850586 C32.50701904 13.88639893 32.47277832 14.80429199 32.4375 15.75 C32.41937256 16.69431885 32.40124512 17.6386377 32.38256836 18.61157227 C32.2008777 25.32273536 31.54742223 31.84355959 30.5078125 38.4765625 C29.79925455 43.39286456 29.52054083 48.31268087 29.24609375 53.26953125 C29 56 29 56 28 58 C27.03556121 66.64422914 26.85677355 75.31092846 27 84 C27.59167969 83.07058594 28.18335938 82.14117187 28.79296875 81.18359375 C40.79499667 62.37914662 40.79499667 62.37914662 45 60 C47.81822033 59.72087914 50.37454516 59.62286463 53.1875 59.6875 C54.00105957 59.69950439 54.81461914 59.71150879 55.65283203 59.72387695 C58.43712385 59.78492459 61.21736499 59.88625458 64 60 C65.07427246 60.04253906 66.14854492 60.08507812 67.25537109 60.12890625 C70.63143645 60.28101201 74.00214513 60.47637398 77.375 60.6875 C78.45031982 60.74059326 79.52563965 60.79368652 80.63354492 60.84838867 C85.41582946 61.19932982 88.24268567 61.4673128 92.2265625 64.26953125 C94 67 94 67 94.61328125 69.38671875 C93.72323042 73.17935572 91.55204378 75.81238139 89.1875 78.8125 C88.16576808 80.15457746 87.14630291 81.49838311 86.12890625 82.84375 C85.60570801 83.53210938 85.08250977 84.22046875 84.54345703 84.9296875 C82.13764945 88.15671191 79.88146618 91.48014144 77.625 94.8125 C73.07033961 101.50732194 68.36890562 108.08555887 63.59033203 114.62231445 C62.04775323 116.73952698 60.5225875 118.8683775 59 121 C58.13109131 122.18553467 58.13109131 122.18553467 57.24462891 123.39501953 C56.68565918 124.18376465 56.12668945 124.97250977 55.55078125 125.78515625 C55.03813721 126.49679932 54.52549316 127.20844238 53.99731445 127.94165039 C52.80849136 129.93204673 52.80849136 129.93204673 53.22192383 132.06201172 C54.52296053 135.30256062 56.48108926 138.14540506 58.375 141.0625 C62.14927217 146.98310035 65.76487327 152.9673863 69.25 159.0625 C73.59961729 166.65053586 78.07802506 174.15356195 82.625 181.625 C83.24149414 182.63957275 83.85798828 183.65414551 84.49316406 184.69946289 C86.93689666 189.08130725 86.93689666 189.08130725 90 193 C90.46853583 200.2623053 90.46853583 200.2623053 88.8984375 202.734375 C81.80274319 207.46483787 65.93397136 203.62448635 57.9375 202.75 C56.86741699 202.64091309 55.79733398 202.53182617 54.69482422 202.41943359 C47.56777229 201.56427703 42.89427334 200.11024928 37.234375 195.58984375 C35.53092566 193.39584413 34.43673342 191.0726412 33.25 188.5625 C30.64587949 183.205267 27.78109539 178.08689093 24.7109375 172.984375 C22.65282145 169.39441916 20.81617526 165.71676926 19 162 C18.92483154 162.81678223 18.84966309 163.63356445 18.7722168 164.47509766 C18.42301876 168.19301413 18.05544937 171.9088944 17.6875 175.625 C17.56955078 176.91019531 17.45160156 178.19539062 17.33007812 179.51953125 C17.20439453 180.76347656 17.07871094 182.00742187 16.94921875 183.2890625 C16.83924561 184.43068848 16.72927246 185.57231445 16.6159668 186.74853516 C15.94498829 190.29038684 14.83312926 192.90543313 13 196 C5.25166287 199.87416857 -8.51061914 196.68480777 -16.75 195.75 C-17.80977051 195.64075195 -18.86954102 195.53150391 -19.96142578 195.41894531 C-20.95899902 195.29616211 -21.95657227 195.17337891 -22.984375 195.046875 C-23.87866211 194.94213867 -24.77294922 194.83740234 -25.69433594 194.72949219 C-28.64934962 193.79455139 -29.49349407 192.66931073 -31 190 C-31.9818954 181.00457117 -30.8764507 171.8920816 -29.63671875 162.9765625 C-28.7372815 156.27582648 -28.1388936 149.54203883 -27.5 142.8125 C-27.40301819 141.79342056 -27.40301819 141.79342056 -27.30407715 140.75375366 C-26.98415231 137.38950351 -26.66567304 134.02512201 -26.34814453 130.66064453 C-26.05060366 127.53208364 -25.74534877 124.40451257 -25.43359375 121.27734375 C-24.3745015 110.5937507 -23.52649772 99.90372738 -22.75195312 89.19580078 C-22.19299925 81.50138256 -21.59420993 73.81171571 -20.9375 66.125 C-20.85822266 65.17447754 -20.77894531 64.22395508 -20.69726562 63.24462891 C-20.62056641 62.36210449 -20.54386719 61.47958008 -20.46484375 60.5703125 C-20.399021 59.80477051 -20.33319824 59.03922852 -20.26538086 58.25048828 C-20 56 -20 56 -19.5 53.50878906 C-19.01773026 51.08896296 -18.73965532 48.74655555 -18.53515625 46.2890625 C-18.42034912 44.93240479 -18.42034912 44.93240479 -18.30322266 43.54833984 C-18.22378418 42.5836377 -18.1443457 41.61893555 -18.0625 40.625 C-17.97532715 39.62291504 -17.8881543 38.62083008 -17.79833984 37.58837891 C-17.33637702 32.24376039 -16.91908987 26.89984677 -16.56640625 21.546875 C-16.49220459 20.51224121 -16.41800293 19.47760742 -16.34155273 18.41162109 C-16.19994846 16.42596837 -16.07256165 14.43923732 -15.96118164 12.45166016 C-15.66963616 8.52262104 -15.20989798 5.4779033 -13.6171875 1.8515625 C-9.32259645 -1.18670043 -5.08972682 -0.41046184 0 0 Z M-8 7 C-8.55495119 12.27917079 -9.10611577 17.55871961 -9.65405273 22.83862305 C-9.84023378 24.6277892 -10.02737816 26.41685543 -10.21557617 28.20581055 C-11.2525938 38.06992227 -12.20899789 47.90971985 -12.76220703 57.81469727 C-13.00281764 61.03774302 -13.43066023 64.18386388 -13.9375 67.375 C-15.10026417 74.9975651 -15.66521054 82.64387343 -16.24755859 90.32983398 C-16.77013463 97.20904956 -17.37463449 104.07296152 -18.0625 110.9375 C-18.71070919 117.4355516 -19.1926312 123.91460565 -19.5 130.4375 C-19.80005393 136.71826684 -20.49195136 142.81655879 -21.45703125 149.03515625 C-23.3239896 161.87942163 -24.39081145 175.0223119 -24 188 C-20.37566012 188.34077314 -16.75044609 188.6712218 -13.125 189 C-12.11179687 189.09539062 -11.09859375 189.19078125 -10.0546875 189.2890625 C-3.68212887 189.86095879 2.60250235 190.12770164 9 190 C10.68129454 186.63741093 10.49377186 182.82345801 10.75390625 179.1171875 C10.81907944 178.22895294 10.88425262 177.34071838 10.95140076 176.42556763 C11.08869883 174.54102066 11.22389844 172.65631982 11.35717773 170.77148438 C11.56022206 167.90713489 11.77077883 165.04341302 11.98242188 162.1796875 C12.11503573 160.34638684 12.24721091 158.51305438 12.37890625 156.6796875 C12.44139053 155.83042694 12.50387482 154.98116638 12.56825256 154.10617065 C12.92093298 149.05628206 13.05788145 144.0622606 13 139 C13.66 139 14.32 139 15 139 C15.27070312 139.886875 15.54140625 140.77375 15.8203125 141.6875 C16.92022613 144.77599919 18.16835322 147.21502416 19.875 150 C23.41028563 155.91679604 26.71789157 161.9394302 30 168 C36.70241745 183.59771943 36.70241745 183.59771943 47.84765625 194.5612793 C49.93240904 194.98622267 51.88053419 195.18555446 54.00390625 195.28125 C54.74447266 195.31863281 55.48503906 195.35601563 56.24804688 195.39453125 C57.79491379 195.46502139 59.34178885 195.535333 60.88867188 195.60546875 C64.13074814 195.76940983 66.90400843 195.96800281 70 197 C72.22818441 197.06937062 74.45834524 197.08457084 76.6875 197.0625 C77.86699219 197.05347656 79.04648437 197.04445313 80.26171875 197.03515625 C81.16535156 197.02355469 82.06898438 197.01195312 83 197 C81.68464787 193.50791469 80.14830669 190.36214036 78.2421875 187.15625 C77.70279541 186.24584961 77.16340332 185.33544922 76.60766602 184.39746094 C76.03588623 183.44129883 75.46410645 182.48513672 74.875 181.5 C74.28968506 180.51547852 73.70437012 179.53095703 73.10131836 178.51660156 C69.35373186 172.22632391 65.55877487 165.96831315 61.69921875 159.74609375 C59.08710023 155.52467003 56.54488172 151.26215962 54 147 C52.93788192 145.22893757 51.87538402 143.45810286 50.8125 141.6875 C49.875 140.125 48.9375 138.5625 48 137 C47.42636719 136.16082031 46.85273437 135.32164062 46.26171875 134.45703125 C45 132 45 132 45.27075195 130.07470703 C46.05510034 127.84323982 47.02153344 126.26177853 48.40625 124.34765625 C48.89818848 123.66034424 49.39012695 122.97303223 49.89697266 122.26489258 C50.42597168 121.53810303 50.9549707 120.81131348 51.5 120.0625 C52.60208379 118.52641554 53.70364194 116.98995382 54.8046875 115.453125 C55.34963867 114.69580078 55.89458984 113.93847656 56.45605469 113.15820312 C58.54833531 110.23350978 60.58834971 107.27622766 62.625 104.3125 C65.70804947 99.84374779 68.83647474 95.41180567 72 91 C75.39123109 86.2614312 78.77765139 81.51970441 82.125 76.75 C82.87007812 75.69296875 83.61515625 74.6359375 84.3828125 73.546875 C86.17867914 71.22142362 86.17867914 71.22142362 86 69 C84.40235055 68.86580448 82.80469235 68.73171303 81.20703125 68.59765625 C80.18971924 68.51201416 79.17240723 68.42637207 78.12426758 68.33813477 C75.9121627 68.15402371 73.69975336 67.97353582 71.48706055 67.79663086 C62.06943112 67.0391789 62.06943112 67.0391789 57.6875 66.46875 C51.63956261 65.58542078 51.63956261 65.58542078 46.1875 67.75 C45.1046875 69.35875 45.1046875 69.35875 44 71 C43.40058594 71.79148437 42.80117188 72.58296875 42.18359375 73.3984375 C38.14887199 78.74233843 34.48358892 84.27969161 30.93359375 89.953125 C27.06911921 96.04260003 23.01563593 102.0095815 19 108 C18.34 108.99 17.68 109.98 17 111 C17.96139838 97.89901495 18.95386779 84.80915133 20.31762695 71.74316406 C20.91315054 66.01236276 21.38316163 60.28157468 21.75390625 54.53125 C22 52 22 52 22.48413086 50.13183594 C23.03359331 47.86117523 23.28980126 45.68563699 23.5 43.359375 C23.58209717 42.46049561 23.66419434 41.56161621 23.7487793 40.63549805 C23.87313354 39.20717651 23.87313354 39.20717651 24 37.75 C24.08612549 36.77522705 24.17225098 35.8004541 24.26098633 34.79614258 C25.41346376 22.41431283 25.41346376 22.41431283 26 10 C22.15827709 6.15827709 10.66155822 6.94534156 5.22631836 6.90844727 C3.6391339 6.91455966 2.05196087 6.92556027 0.46484375 6.94140625 C-0.7649823 6.94775085 -0.7649823 6.94775085 -2.01965332 6.95422363 C-4.01313081 6.9651249 -6.00657458 6.9819327 -8 7 Z " fill="#8ABDB5" transform="translate(531,357)"/>
<path d="M0 0 C3.81248426 -0.02887236 7.6249407 -0.04675492 11.4375 -0.0625 C12.52611328 -0.07087891 13.61472656 -0.07925781 14.73632812 -0.08789062 C15.77080078 -0.09111328 16.80527344 -0.09433594 17.87109375 -0.09765625 C18.82943115 -0.10289307 19.78776855 -0.10812988 20.77514648 -0.11352539 C23 0 23 0 24 1 C24.10033866 3.48953697 24.13617943 5.95134953 24.12939453 8.44140625 C24.13202301 9.60964432 24.13202301 9.60964432 24.13470459 10.80148315 C24.13912349 13.38851111 24.13618499 15.97547129 24.1328125 18.5625 C24.13348553 20.35229506 24.13445554 22.14209002 24.13571167 23.93188477 C24.13718869 27.68799711 24.13503394 31.44408572 24.13037109 35.20019531 C24.1246738 40.02600493 24.12795278 44.85175895 24.13394356 49.67756653 C24.13754905 53.37488223 24.13641064 57.07218464 24.13381577 60.76950073 C24.13314646 62.54938768 24.13397503 64.32927582 24.13629532 66.10916138 C24.13882165 68.59233822 24.13498154 71.07542374 24.12939453 73.55859375 C24.13141876 74.30148651 24.13344299 75.04437927 24.13552856 75.80978394 C24.11426262 80.88573738 24.11426262 80.88573738 23 82 C20.31889629 82.2102789 17.66254968 82.3577382 14.9765625 82.45703125 C14.16061615 82.48729904 13.3446698 82.51756683 12.5039978 82.54875183 C10.76725538 82.60969325 9.03039998 82.66748205 7.29345703 82.72241211 C5.5320412 82.78187802 3.77091321 82.85069865 2.01025391 82.92944336 C-8.0466476 83.37880236 -16.78198578 83.72202491 -26 79 C-26.66 78.67 -27.32 78.34 -28 78 C-28 77.34 -28 76.68 -28 76 C-28.58910156 75.7421875 -29.17820312 75.484375 -29.78515625 75.21875 C-36.74567949 71.38862081 -41.34964175 63.26110546 -44 56 C-46.54757868 41.92299475 -45.62468526 29.27842549 -38.09375 16.85546875 C-36.1372904 14.18723747 -34.21723749 12.06711388 -31.75 9.875 C-31.04359375 9.23304688 -30.3371875 8.59109375 -29.609375 7.9296875 C-22.78493026 2.88286759 -17.46526628 1.41190949 -9 1.75 C-8.12988281 1.76804688 -7.25976562 1.78609375 -6.36328125 1.8046875 C-4.24170093 1.85131564 -2.12069665 1.92303923 0 2 C0 1.34 0 0.68 0 0 Z " fill="#DC90A4" transform="translate(407,246)"/>
<path d="M0 0 C4.71181831 4.20573413 5.17218867 9.37607117 6.125 15.3125 C6.43794079 17.14229839 6.75301529 18.97173326 7.0703125 20.80078125 C7.22226074 21.68435303 7.37420898 22.5679248 7.53076172 23.47827148 C8.19283618 27.03631886 9.08284427 30.49879438 10 34 C10.54900902 36.26906939 11.09119968 38.53980468 11.625 40.8125 C12.01558594 42.46185547 12.01558594 42.46185547 12.4140625 44.14453125 C13 47 13 47 13 50 C13.60585937 49.84402344 14.21171875 49.68804687 14.8359375 49.52734375 C21.18858369 48.05157517 26.56934675 47.98751417 33 49 C35.78404891 55.71927347 37.29741201 62.43567425 38.6875 69.5625 C39.02491211 71.20895508 39.02491211 71.20895508 39.36914062 72.88867188 C41.49933812 83.63030604 41.49933812 83.63030604 41 89 C37.40939193 94.04929259 33.832265 94.98166802 28 96 C26.68 96 25.36 96 24 96 C25.93527246 107.54869904 28.3493887 118.8626847 32 130 C32.45439453 131.55267578 32.45439453 131.55267578 32.91796875 133.13671875 C34.19868069 136.08189387 35.37620413 137.17424081 38 139 C40.3725804 139.5012716 40.3725804 139.5012716 42.9140625 139.421875 C43.8421875 139.43009277 44.7703125 139.43831055 45.7265625 139.44677734 C49.39853957 139.35584395 53.05478321 139.12766213 56.71337891 138.80224609 C59.71649871 139.06196498 60.88623515 139.86851804 63 142 C63.98901367 144.35668945 63.98901367 144.35668945 64.66796875 147.11328125 C64.92126953 148.11423828 65.17457031 149.11519531 65.43554688 150.14648438 C65.68369141 151.19126953 65.93183594 152.23605469 66.1875 153.3125 C66.44724609 154.34568359 66.70699219 155.37886719 66.97460938 156.44335938 C70.13051198 169.15667244 70.13051198 169.15667244 70.1875 175.6875 C70.20167969 176.43386719 70.21585937 177.18023438 70.23046875 177.94921875 C70 180 70 180 68 183 C65.39437986 183.84711866 62.91192317 184.52869105 60.25 185.125 C59.54617187 185.29386719 58.84234375 185.46273437 58.1171875 185.63671875 C41.04334393 189.66716138 22.59517319 190.64868065 7.1875 181.25 C2.75341445 178.05874132 -0.70225061 174.33608359 -4 170 C-4.43957031 169.43023438 -4.87914062 168.86046875 -5.33203125 168.2734375 C-15.00547433 154.33139572 -17.72294953 135.83323706 -20.5625 119.48046875 C-21.29888562 115.30542525 -22.15302328 111.15379008 -23 107 C-23.556875 107.144375 -24.11375 107.28875 -24.6875 107.4375 C-29.93857398 108.71478827 -34.59467258 109.3727812 -40 109 C-46.07215257 104.95189829 -46.71774223 95.50497822 -48.14453125 88.64453125 C-48.51834487 86.76407136 -48.8868387 84.88254612 -49.25 83 C-49.42523193 82.09209717 -49.60046387 81.18419434 -49.78100586 80.2487793 C-51.78395704 69.4045897 -51.78395704 69.4045897 -49.5 65.3125 C-44.72669344 60.89719143 -39.28017807 60.90159265 -33 61 C-34.503858 52.59546026 -36.10819807 44.28019903 -38.23828125 36.0078125 C-42.49253731 19.20895522 -42.49253731 19.20895522 -42 11 C-41.01 10.67 -40.02 10.34 -39 10 C-38.74347656 9.35417969 -38.48695313 8.70835937 -38.22265625 8.04296875 C-37 6 -37 6 -33.99609375 4.98828125 C-32.23458984 4.65376953 -32.23458984 4.65376953 -30.4375 4.3125 C-26.39974059 3.83938983 -26.39974059 3.83938983 -23 2 C-15.49013495 0.58674243 -7.6259975 -0.86099972 0 0 Z M-24.5625 9.5 C-25.66658203 9.73847656 -26.77066406 9.97695313 -27.90820312 10.22265625 C-30.60737458 10.80689249 -33.30441124 11.39948965 -36 12 C-36.08363777 15.64869771 -35.97141994 18.8536027 -35 22.375 C-34.67 23.57125 -34.34 24.7675 -34 26 C-33.34 26 -32.68 26 -32 26 C-31.99742187 26.79277344 -31.99484375 27.58554687 -31.9921875 28.40234375 C-31.56370237 41.32831194 -28.24296644 53.52989858 -25 66 C-26.02222656 65.9690625 -27.04445312 65.938125 -28.09765625 65.90625 C-31.82534197 65.99580401 -34.85191385 66.53310036 -38.4375 67.5 C-39.48808594 67.7784375 -40.53867188 68.056875 -41.62109375 68.34375 C-42.40613281 68.5603125 -43.19117188 68.776875 -44 69 C-43.50290701 74.21947643 -42.80943666 79.2161442 -41.609375 84.31640625 C-40.79895322 87.88537909 -40.08719252 91.4729488 -39.375 95.0625 C-39.23980957 95.7426416 -39.10461914 96.4227832 -38.96533203 97.12353516 C-38.64275693 98.74886531 -38.32126285 100.37440996 -38 102 C-31.29221378 101.22602467 -24.65425699 100.14231412 -18 99 C-17.79177612 100.28583984 -17.79177612 100.28583984 -17.5793457 101.59765625 C-16.58693496 107.42582146 -15.37227824 113.20840414 -14.1875 119 C-13.93935547 120.23878906 -13.69121094 121.47757812 -13.43554688 122.75390625 C-11.11281597 134.08977872 -8.30448462 145.23878846 -4 156 C-3.608125 156.99 -3.21625 157.98 -2.8125 159 C-2.544375 159.66 -2.27625 160.32 -2 161 C-1.34 161 -0.68 161 0 161 C0.061875 161.70125 0.12375 162.4025 0.1875 163.125 C1.31674807 167.12080087 3.09722058 169.02810678 6 172 C6.99 172 7.98 172 9 172 C9.20625 172.639375 9.4125 173.27875 9.625 173.9375 C10.89538209 176.34925077 10.89538209 176.34925077 14.125 176.75 C15.07375 176.8325 16.0225 176.915 17 177 C17 177.66 17 178.32 17 179 C22.53153211 180.8561692 27.43167808 181.34907884 33.25 181.3125 C34.10883789 181.31121094 34.96767578 181.30992187 35.85253906 181.30859375 C45.05649335 181.17437641 53.97585821 179.71499527 63 178 C63.30797408 170.61632139 62.17530008 164.1141233 60.5 156.9375 C60.14228516 155.35291992 60.14228516 155.35291992 59.77734375 153.73632812 C59.1934398 151.15547268 58.60085212 148.57695245 58 146 C56.70964844 146.03480469 55.41929687 146.06960938 54.08984375 146.10546875 C52.37240894 146.13362342 50.65495993 146.16092177 48.9375 146.1875 C48.08994141 146.21263672 47.24238281 146.23777344 46.36914062 146.26367188 C40.89726205 146.32705271 36.74008352 146.02047725 32 143 C25.07578342 135.89147827 23.16767245 127.60000231 21.25 118.125 C20.69343962 115.54411303 20.13615673 112.96338174 19.578125 110.3828125 C19.31837891 109.14821289 19.05863281 107.91361328 18.79101562 106.64160156 C17.65153291 101.39576075 16.34544296 96.19631888 15 91 C15.86882812 90.87882812 16.73765625 90.75765625 17.6328125 90.6328125 C18.78523438 90.46523438 19.93765625 90.29765625 21.125 90.125 C22.26195312 89.96257812 23.39890625 89.80015625 24.5703125 89.6328125 C27.86078915 89.02568583 30.85779103 88.13654367 34 87 C32.79327454 76.09183692 30.68142335 65.63457708 28 55 C26.35405757 55.14459681 24.70825269 55.29075936 23.0625 55.4375 C22.14597656 55.51871094 21.22945313 55.59992188 20.28515625 55.68359375 C16.18495973 56.07849972 12.0928869 56.5361281 8 57 C7.81207886 56.04468384 7.81207886 56.04468384 7.62036133 55.07006836 C5.25012276 43.04903531 2.83660273 31.03907439 0.25 19.0625 C0.03964111 18.08079834 -0.17071777 17.09909668 -0.38745117 16.08764648 C-0.58443604 15.18344971 -0.7814209 14.27925293 -0.984375 13.34765625 C-1.15678711 12.55367432 -1.32919922 11.75969238 -1.50683594 10.94165039 C-1.94242697 8.93742564 -1.94242697 8.93742564 -3 7 C-10.52338162 6.68355913 -17.23328814 7.86539579 -24.5625 9.5 Z " fill="#ECCD70" transform="translate(180,362)"/>
<path d="M0 0 C9.46338171 6.42158045 9.46338171 6.42158045 10.6875 11.05859375 C10.7803125 11.81011719 10.873125 12.56164062 10.96875 13.3359375 C9.55242866 14.44054709 8.13567736 15.54460538 6.71875 16.6484375 C5.92984375 17.26332031 5.1409375 17.87820313 4.328125 18.51171875 C3.54953125 19.11371094 2.7709375 19.71570313 1.96875 20.3359375 C1.25332031 20.91214844 0.53789062 21.48835938 -0.19921875 22.08203125 C-2.03125 23.3359375 -2.03125 23.3359375 -4.09375 23.0859375 C-4.733125 22.8384375 -5.3725 22.5909375 -6.03125 22.3359375 C-9.45357972 21.19516093 -12.11798217 21.23778633 -15.71875 21.2734375 C-16.89824219 21.28246094 -18.07773438 21.29148437 -19.29296875 21.30078125 C-20.19660156 21.31238281 -21.10023438 21.32398438 -22.03125 21.3359375 C-21.77409162 23.81107898 -21.77409162 23.81107898 -20.03125 26.3359375 C-16.81410543 27.90857066 -13.40933894 28.80819378 -9.96875 29.7734375 C-0.0072734 32.60857315 10.464965 36.8349153 16.078125 46.18359375 C18.18134703 51.26638033 17.39087481 56.87091612 15.90625 62.0234375 C12.14334671 68.45678829 8.20120899 72.26952065 0.96875 74.3359375 C0.47375 75.8209375 0.47375 75.8209375 -0.03125 77.3359375 C-2.05094556 77.67609675 -4.07207797 78.00772919 -6.09375 78.3359375 C-7.21910156 78.5215625 -8.34445313 78.7071875 -9.50390625 78.8984375 C-20.42464517 80.25294775 -30.90716239 78.23323199 -39.71875 71.3984375 C-42.9199686 68.69219724 -45.17031109 66.11098499 -47.03125 62.3359375 C-47.03125 61.0159375 -47.03125 59.6959375 -47.03125 58.3359375 C-45.38125 57.6759375 -43.73125 57.0159375 -42.03125 56.3359375 C-42.03125 55.6759375 -42.03125 55.0159375 -42.03125 54.3359375 C-41.061875 53.8615625 -40.0925 53.3871875 -39.09375 52.8984375 C-36.22647563 51.63399803 -36.22647563 51.63399803 -35.03125 50.3359375 C-33.36507885 50.29529918 -31.69736905 50.2932165 -30.03125 50.3359375 C-29.70125 51.3259375 -29.37125 52.3159375 -29.03125 53.3359375 C-23.71795419 55.99258541 -17.8391432 55.74400843 -12.03125 55.3359375 C-11.37125 55.0059375 -10.71125 54.6759375 -10.03125 54.3359375 C-9.97957473 51.91326664 -9.97957473 51.91326664 -11.03125 49.3359375 C-15.79381438 46.71166733 -20.75106127 45.54019107 -26.03125 44.3359375 C-26.03125 43.6759375 -26.03125 43.0159375 -26.03125 42.3359375 C-27.02125 42.2946875 -28.01125 42.2534375 -29.03125 42.2109375 C-34.56824164 41.41352085 -38.86321141 37.92761582 -42.390625 33.7109375 C-46.0488929 28.40909997 -46.73569893 23.60451206 -46.03125 17.3359375 C-43.84004062 9.88303427 -38.26769231 3.78825207 -31.62890625 -0.0546875 C-22.25552562 -4.05775532 -9.18836227 -4.98291954 0 0 Z " fill="#EDCB67" transform="translate(169.03125,251.6640625)"/>
<path d="M0 0 C3.76896524 2.90493028 4.69318058 5.47368362 5.59765625 10.06640625 C5.84016113 11.26467041 6.08266602 12.46293457 6.33251953 13.69750977 C6.57341309 14.97295654 6.81430664 16.24840332 7.0625 17.5625 C7.32311514 18.88552097 7.58467767 20.20835565 7.84716797 21.53100586 C9.39850744 29.43268649 10.77924589 37.35458574 11.95947266 45.31982422 C12.77964033 50.81602839 13.81414393 56.24564226 14.9375 61.6875 C16.41280861 68.85278665 17.70408303 76.02884369 18.875 83.25 C20.41214605 92.69181015 22.10028497 102.10032073 23.875 111.5 C24.00111664 112.16810699 24.12723328 112.83621399 24.25717163 113.52456665 C24.90472675 116.95173759 25.55417363 120.37854678 26.20458984 123.80517578 C28.27954956 134.7403253 30.3278669 145.68044136 32.36572266 156.62255859 C32.91333776 159.53853524 33.4743852 162.4513414 34.04296875 165.36328125 C37.36234514 182.6280865 37.36234514 182.6280865 36 189 C32.68066681 192.92697069 27.24021107 193.19923012 22.4375 194.0625 C21.54015137 194.23168945 20.64280273 194.40087891 19.71826172 194.57519531 C17.94405297 194.90840115 16.16899988 195.23714768 14.39306641 195.56103516 C12.40889076 195.92499637 10.42848883 196.3094615 8.44921875 196.69921875 C-1.34464627 198.60922562 -1.34464627 198.60922562 -5 198 C-7.85215856 196.05534644 -9.58003665 194.44067496 -10.56713867 191.05444336 C-10.7035376 190.30300049 -10.83993652 189.55155762 -10.98046875 188.77734375 C-11.14305176 187.89175781 -11.30563477 187.00617188 -11.47314453 186.09375 C-12.65008008 179.18266227 -13.78848454 172.2656677 -14.89819336 165.34350586 C-15.22155797 163.33127565 -15.54987081 161.31990326 -15.87890625 159.30859375 C-16.0704126 158.12064209 -16.26191895 156.93269043 -16.45922852 155.70874023 C-16.72061738 153.09438642 -16.72061738 153.09438642 -18 152 C-18.04092937 149.66702567 -18.04241723 147.33294775 -18 145 C-18.66 145 -19.32 145 -20 145 C-20.10957031 143.97003906 -20.21914063 142.94007813 -20.33203125 141.87890625 C-21.38134026 132.33087416 -22.8087257 122.92276192 -24.55273438 113.47949219 C-25.07093425 110.60676406 -25.56023732 107.72980317 -26.046875 104.8515625 C-26.22557129 103.79984863 -26.40426758 102.74813477 -26.58837891 101.66455078 C-26.94229598 99.57743838 -27.2935922 97.48987962 -27.64208984 95.40185547 C-27.80402832 94.45455566 -27.9659668 93.50725586 -28.1328125 92.53125 C-28.27605957 91.68111328 -28.41930664 90.83097656 -28.56689453 89.95507812 C-28.81498477 88.00587083 -28.81498477 88.00587083 -30 87 C-30.27236944 85.63442938 -30.49043182 84.25791194 -30.68359375 82.87890625 C-30.80669922 82.02490234 -30.92980469 81.17089844 -31.05664062 80.29101562 C-31.18232422 79.39060547 -31.30800781 78.49019531 -31.4375 77.5625 C-32.40991994 70.65265886 -33.57426221 63.83067855 -35 57 C-42.92866009 18.35794078 -42.92866009 18.35794078 -42 10 C-39.0256069 6.14113509 -36.39577354 5.30095501 -31.6875 4.4375 C-30.45 4.20289063 -29.2125 3.96828125 -27.9375 3.7265625 C-26.96876953 3.55108887 -26.96876953 3.55108887 -25.98046875 3.37207031 C-23.99858394 2.99973396 -22.03182072 2.58204042 -20.0625 2.1484375 C-6.59514076 -0.75681943 -6.59514076 -0.75681943 0 0 Z M-35 12 C-35.17618395 17.99196488 -34.56068632 23.39761879 -33.390625 29.265625 C-33.22254333 30.13910583 -33.05446167 31.01258667 -32.88128662 31.91253662 C-32.34445044 34.693087 -31.79736724 37.47150578 -31.25 40.25 C-30.89777103 42.06757931 -30.5462036 43.88528694 -30.1953125 45.703125 C-28.79071359 52.95680732 -27.36732901 60.20640913 -25.89672852 67.44702148 C-24.20218864 75.79639792 -22.52706871 84.10802122 -21.4375 92.5625 C-21.20031644 94.29832742 -20.96200646 96.03400125 -20.72265625 97.76953125 C-20.6055127 98.62627441 -20.48836914 99.48301758 -20.36767578 100.36572266 C-19.74409561 104.83347167 -19.06636855 109.29230281 -18.375 113.75 C-18.25181396 114.56670166 -18.12862793 115.38340332 -18.00170898 116.22485352 C-17.71258614 119.92166019 -17.71258614 119.92166019 -16 123 C-13.86009101 131.57186403 -12.38849771 140.28105117 -11 149 C-10.50487643 152.04247808 -10.0037214 155.08393429 -9.5 158.125 C-9.37197998 158.8979541 -9.24395996 159.6709082 -9.11206055 160.46728516 C-8.18659345 166.00350867 -7.15199807 171.50585537 -6 177 C-5.34 177 -4.68 177 -4 177 C-4 181.62 -4 186.24 -4 191 C3.67889413 190.40254304 11.12475727 189.37874996 18.6875 187.9375 C19.68716797 187.75123047 20.68683594 187.56496094 21.71679688 187.37304688 C24.14541301 186.91986013 26.57307351 186.46213408 29 186 C29.98030439 181.6777073 29.77903984 178.74293987 28.875 174.375 C28.58493598 172.9285859 28.29595337 171.48195469 28.0078125 170.03515625 C27.84571289 169.23352051 27.68361328 168.43188477 27.51660156 167.60595703 C26.54104918 162.68485775 25.6543444 157.74708282 24.75 152.8125 C23.27559462 144.81741239 21.78142861 136.82642493 20.26171875 128.83984375 C20.11231339 128.05454285 19.96290802 127.26924194 19.80897522 126.46014404 C19.65859299 125.66972717 19.50821075 124.8793103 19.35327148 124.06494141 C16.03822086 106.63910302 12.77044178 89.20995227 10 71.6875 C9.23679841 67.01456397 8.19300841 62.4229977 7.125 57.8125 C5.15345966 49.27162104 3.77627442 40.67238423 2.43676758 32.01293945 C1.45666803 19.14627316 1.45666803 19.14627316 -3 8 C-13.81482588 7.4500936 -24.51968905 9.47026977 -35 12 Z " fill="#DC97A8" transform="translate(448,360)"/>
<path d="M0 0 C7.90848371 -0.43601906 15.50402307 2.12394411 23.0546875 4.19921875 C23.0546875 4.85921875 23.0546875 5.51921875 23.0546875 6.19921875 C23.60253906 6.09222656 24.15039062 5.98523438 24.71484375 5.875 C32.87691017 4.6407363 40.1189215 6.31586748 48.0546875 8.19921875 C49.51425954 8.52892653 50.97389598 8.8583493 52.43359375 9.1875 C53.87024946 9.52278399 55.3064614 9.85997615 56.7421875 10.19921875 C57.41330566 10.35285889 58.08442383 10.50649902 58.77587891 10.66479492 C62.51928426 11.58704862 65.23557034 12.5505898 68.0546875 15.19921875 C69.85512514 22.60032263 66.9601685 31.09424757 65.1796875 38.26171875 C64.64044077 40.50255984 64.1013748 42.74344444 63.5625 44.984375 C63.17143066 46.58889526 63.17143066 46.58889526 62.77246094 48.22583008 C61.35581486 54.09431054 60.09655674 59.99484708 58.8359375 65.8984375 C58.62582031 66.88005859 58.41570312 67.86167969 58.19921875 68.87304688 C57.76713429 70.89336906 57.33747265 72.91421083 56.91015625 74.93554688 C55.86341692 79.8064167 54.71194719 84.49288821 53.0546875 89.19921875 C52.70817559 90.62890123 52.39450642 92.06701923 52.1171875 93.51171875 C51.94960938 94.37410156 51.78203125 95.23648438 51.609375 96.125 C51.19704236 98.41025202 50.81045291 100.7001794 50.4375 102.9921875 C49.04687314 111.4784227 47.234839 119.67531654 44.82104492 127.93261719 C43.65726362 131.92901488 42.70323765 135.82938116 42.0546875 139.94921875 C41.16747155 144.65390519 39.74398189 147.0838146 36.0546875 150.19921875 C31.11252214 151.05459352 27.47512104 149.72864247 22.921875 148.05859375 C18.3915861 146.70074149 13.75002434 146.0184836 9.08251953 145.28979492 C6.11160395 144.81093247 3.38024207 144.33763128 0.6015625 143.15625 C-2.46805871 142.00278804 -5.22630057 141.83861366 -8.48071289 141.61865234 C-25.35790435 140.45839768 -37.16859818 133.58095831 -48.6953125 121.32421875 C-62.82649657 105.02475776 -66.08440764 87.2381878 -65.18359375 66.25244141 C-63.68809029 47.08977101 -54.58020081 29.895816 -40.5078125 16.94921875 C-28.43210834 6.69314124 -15.7535484 1.6133152 0 0 Z M-44.3046875 30.8984375 C-49.3989754 37.45781196 -52.41113609 44.3280489 -54.9453125 52.19921875 C-55.20642822 52.92592773 -55.46754395 53.65263672 -55.73657227 54.40136719 C-58.01015571 61.12466864 -58.36885367 67.26200032 -58.2578125 74.32421875 C-58.26103516 75.35675781 -58.26425781 76.38929688 -58.26757812 77.453125 C-58.16892466 91.53366433 -53.33262268 103.92595238 -44.9453125 115.19921875 C-43.8315625 116.74609375 -43.8315625 116.74609375 -42.6953125 118.32421875 C-34.48276732 126.91006144 -23.00966486 134.00175665 -10.95703125 134.296875 C-9.51559239 134.29029309 -8.07416912 134.27846373 -6.6328125 134.26171875 C-5.89224609 134.25720703 -5.15167969 134.25269531 -4.38867188 134.24804688 C-2.57418351 134.2363405 -0.75973716 134.21840773 1.0546875 134.19921875 C1.0546875 134.85921875 1.0546875 135.51921875 1.0546875 136.19921875 C17.34226896 140.67683638 17.34226896 140.67683638 34.0546875 142.19921875 C34.21549805 141.49539063 34.37630859 140.7915625 34.54199219 140.06640625 C39.84302289 116.89613794 39.84302289 116.89613794 42.1171875 107.94921875 C43.72956814 101.59414528 45.22438966 95.21707712 46.6796875 88.82421875 C46.88601807 87.92026367 47.09234863 87.01630859 47.30493164 86.08496094 C48.25875078 81.86693494 49.17136172 77.64832242 49.9921875 73.40234375 C51.25669269 66.99174282 52.86410161 60.66658022 54.4296875 54.32421875 C57.28023256 42.66748579 59.84416701 30.99323799 62.0546875 19.19921875 C57.68547041 17.19734276 53.91167875 15.7995813 49.1171875 15.13671875 C45.56852587 14.60951434 42.13942579 14.02382062 38.6796875 13.07421875 C35.30575318 12.25982081 32.50506341 12.02669995 29.0546875 12.19921875 C29.0546875 13.18921875 29.0546875 14.17921875 29.0546875 15.19921875 C27.95769531 14.70550781 26.86070312 14.21179688 25.73046875 13.703125 C24.27616024 13.05572315 22.82172653 12.40860251 21.3671875 11.76171875 C20.64595703 11.43623047 19.92472656 11.11074219 19.18164062 10.77539062 C-4.59420027 0.24453872 -28.45554578 12.76638961 -44.3046875 30.8984375 Z " fill="#799FBB" transform="translate(326.9453125,416.80078125)"/>
<path d="M0 0 C1.02996094 -0.00128906 2.05992187 -0.00257813 3.12109375 -0.00390625 C4.74724609 0.00189453 4.74724609 0.00189453 6.40625 0.0078125 C7.49035156 0.00394531 8.57445312 0.00007812 9.69140625 -0.00390625 C10.72136719 -0.00261719 11.75132812 -0.00132812 12.8125 0 C14.24045898 0.00169189 14.24045898 0.00169189 15.69726562 0.00341797 C17.90625 0.1328125 17.90625 0.1328125 18.90625 1.1328125 C19.02974195 2.83609383 19.08418567 4.54442054 19.11157227 6.25195312 C19.13150238 7.35669479 19.1514325 8.46143646 19.17196655 9.59965515 C19.18869415 10.81715958 19.20542175 12.034664 19.22265625 13.2890625 C19.2435733 14.55478592 19.26449036 15.82050934 19.28604126 17.12458801 C19.34237075 20.57726637 19.39178446 24.03000965 19.4390831 27.48282242 C19.46863643 29.62458166 19.49958573 31.76631658 19.53091431 33.90805054 C19.79884734 52.35474267 20.02331008 70.80282023 20.08248901 89.25146484 C20.08998893 91.37859432 20.10066381 93.50571501 20.11453247 95.6328125 C20.13209819 98.56648996 20.13655725 101.49987069 20.13671875 104.43359375 C20.14742905 105.72593681 20.14742905 105.72593681 20.15835571 107.04438782 C20.1355802 112.9034823 20.1355802 112.9034823 17.90625 115.1328125 C15.67553711 115.37573242 15.67553711 115.37573242 12.93359375 115.36328125 C11.95197266 115.36134766 10.97035156 115.35941406 9.95898438 115.35742188 C8.93095703 115.34517578 7.90292969 115.33292969 6.84375 115.3203125 C5.81185547 115.31966797 4.77996094 115.31902344 3.71679688 115.31835938 C-3.95359003 115.27297247 -3.95359003 115.27297247 -5.09375 114.1328125 C-5.25339209 112.03360166 -5.34283798 109.92903884 -5.40576172 107.82470703 C-5.42625202 107.16179028 -5.44674232 106.49887352 -5.46785355 105.81586838 C-5.53405458 103.59091335 -5.59183811 101.36584395 -5.6484375 99.140625 C-5.6798414 97.98237402 -5.6798414 97.98237402 -5.71187973 96.80072403 C-6.1902866 78.94253075 -6.24790299 61.08575003 -6.22412109 43.22216797 C-6.21827061 38.78520162 -6.22182179 34.34829376 -6.22769356 29.91132927 C-6.23128449 26.45256088 -6.23017004 22.99380678 -6.22756577 19.53503799 C-6.22690018 17.89470538 -6.22771202 16.25437146 -6.23004532 14.61404037 C-6.23256361 12.35968205 -6.2287502 10.10542491 -6.22314453 7.85107422 C-6.22234894 6.57320038 -6.22155334 5.29532654 -6.22073364 3.97872925 C-6.0083321 -0.78154604 -4.28863271 0.00508132 0 0 Z " fill="#84BBB3" transform="translate(464.09375,212.8671875)"/>
<path d="M0 0 C8.25 0 16.5 0 25 0 C25 37.62 25 75.24 25 114 C17.08 114 9.16 114 1 114 C0 113 0 113 -0.12304783 111.11218929 C-0.12212604 110.27981023 -0.12120424 109.44743116 -0.12025452 108.58982849 C-0.12162918 107.63765442 -0.12300385 106.68548035 -0.12442017 105.70445251 C-0.12082489 104.65141434 -0.11722961 103.59837616 -0.11352539 102.51342773 C-0.11367142 101.41112823 -0.11381744 100.30882874 -0.1139679 99.17312622 C-0.11326821 95.50992908 -0.10547324 91.84678206 -0.09765625 88.18359375 C-0.09579227 85.65153532 -0.09436827 83.11947652 -0.09336853 80.5874176 C-0.08993346 74.59151751 -0.08204269 68.59563911 -0.07201904 62.59974772 C-0.06085677 55.77518942 -0.05534717 48.95063028 -0.05032361 42.12606514 C-0.03986004 28.08403152 -0.02151501 14.04202081 0 0 Z " fill="#DB755E" transform="translate(510,213)"/>
<path d="M0 0 C4.40365754 1.7537373 6.50619398 4.21299665 9 8.1875 C10.5781951 14.20436883 10.4407431 19.00027652 7.71484375 24.67578125 C6.22640669 27.21984744 4.67730369 29.7155867 3.10058594 32.20556641 C1.00214791 35.62693276 -0.88614324 39.16740834 -2.8125 42.6875 C-6.47073331 49.31644354 -10.23811336 55.86924633 -14.10205078 62.38012695 C-17.53344425 68.17285918 -20.86529567 74.01910393 -24.1875 79.875 C-27.85460805 86.33380073 -31.60174746 92.68067148 -35.671875 98.89453125 C-36.85352211 100.76778946 -37.86248757 102.62717974 -38.8125 104.625 C-40 107 -40 107 -42 108 C-45 108.25 -45 108.25 -48 108 C-50.49153377 104.26269935 -50.41025455 101.32345184 -50 97 C-49.47406064 94.5879333 -48.78264271 92.34792812 -48 90 C-47.34 90 -46.68 90 -46 90 C-45.91234375 88.89527344 -45.8246875 87.79054688 -45.734375 86.65234375 C-45.06352793 81.31254182 -43.1789808 76.55859544 -41.25 71.5625 C-38.67243929 64.70299243 -36.24610248 57.86453584 -34.25 50.8125 C-32.72533362 45.43794225 -31.06943155 40.17020309 -29.09765625 34.94140625 C-27.95176523 31.87074455 -26.86564731 28.7831921 -25.78686523 25.68847656 C-24.76624097 22.76878816 -23.72772106 19.8556255 -22.6875 16.94287109 C-22.09008872 15.25459022 -21.51205221 13.55947767 -20.9375 11.86328125 C-17.16157146 1.33788044 -11.29685805 -1.86261869 0 0 Z " fill="#729CBB" transform="translate(676,261)"/>
<path d="M0 0 C3.44037777 2.57487393 5.90874029 5.57167907 7.86328125 9.39453125 C8.39309996 13.16948957 8.08168734 15.66124023 7 19.29296875 C6.00310731 22.68088123 5.29190673 26.09179825 4.6015625 29.5546875 C4.36888672 30.67810547 4.13621094 31.80152344 3.89648438 32.95898438 C3.41602209 35.29098424 2.95505318 37.62708537 2.51367188 39.96679688 C1.14738873 46.37838434 -0.03997203 50.49871826 -5.48388672 54.40258789 C-10.28776524 57.28562459 -14.53621112 58.06969126 -20.13671875 57.39453125 C-27.14413091 55.10639667 -31.31647034 49.33041578 -35.07421875 43.26953125 C-38.75216011 33.13220539 -36.01308391 21.03143906 -32.13671875 11.39453125 C-28.89587529 5.46388111 -23.82360796 -0.13728659 -17.19140625 -2.21484375 C-11.01069313 -3.38988427 -5.5407437 -3.14234562 0 0 Z " fill="#F9FBFC" transform="translate(338.13671875,460.60546875)"/>
<path d="M0 0 C3.44037777 2.57487393 5.90874029 5.57167907 7.86328125 9.39453125 C8.39309996 13.16948957 8.08168734 15.66124023 7 19.29296875 C6.00310731 22.68088123 5.29190673 26.09179825 4.6015625 29.5546875 C4.36888672 30.67810547 4.13621094 31.80152344 3.89648438 32.95898438 C3.41602209 35.29098424 2.95505318 37.62708537 2.51367188 39.96679688 C1.14738873 46.37838434 -0.03997203 50.49871826 -5.48388672 54.40258789 C-10.28776524 57.28562459 -14.53621112 58.06969126 -20.13671875 57.39453125 C-27.14413091 55.10639667 -31.31647034 49.33041578 -35.07421875 43.26953125 C-38.75216011 33.13220539 -36.01308391 21.03143906 -32.13671875 11.39453125 C-28.89587529 5.46388111 -23.82360796 -0.13728659 -17.19140625 -2.21484375 C-11.01069313 -3.38988427 -5.5407437 -3.14234562 0 0 Z M-24.7109375 12.87890625 C-29.18560578 21.54617203 -30.21581415 29.70265594 -29.13671875 39.39453125 C-27.07787114 44.2549753 -24.5146247 47.47592728 -20.13671875 50.39453125 C-15.5471366 50.92409842 -11.8039511 50.53896971 -7.78173828 48.125 C-3.97890658 44.12463326 -3.64438473 37.94694578 -2.69921875 32.70703125 C-2.44462891 31.46501953 -2.19003906 30.22300781 -1.92773438 28.94335938 C-0.63299231 22.35797321 0.41551567 16.10417941 -0.13671875 9.39453125 C-2.75258961 6.10792428 -4.23931182 4.84879074 -8.2578125 3.88671875 C-15.65202513 3.29723213 -20.81555923 6.73136139 -24.7109375 12.87890625 Z " fill="#799FBB" transform="translate(338.13671875,460.60546875)"/>
<path d="M0 0 C0.77085937 0.05542969 1.54171875 0.11085938 2.3359375 0.16796875 C5.49571804 1.05766805 6.55733546 2.24524682 8.625 4.8125 C9.53466698 7.61487295 10.23923554 10.23554948 10.84375 13.1015625 C11.02836792 13.91885834 11.21298584 14.73615417 11.40319824 15.57821655 C11.9909537 18.19512037 12.55827422 20.8159705 13.125 23.4375 C13.50516444 25.14613336 13.88666321 26.85447042 14.26953125 28.5625 C15.02835847 31.95782157 15.77627679 35.35526834 16.515625 38.75488281 C17.25544959 42.14984471 18.01674548 45.53888006 18.796875 48.92480469 C18.98342651 49.7409726 19.16997803 50.5571405 19.36218262 51.39804077 C19.71447459 52.93614656 20.07074614 54.47334852 20.4317627 56.00942993 C21.26280228 59.66122396 21.93439142 63.06157352 21.625 66.8125 C20.625 67.8125 20.625 67.8125 17.5625 67.875 C16.593125 67.854375 15.62375 67.83375 14.625 67.8125 C11.04281917 60.83632401 7.78183151 53.76704933 4.6875 46.5625 C4.2536499 45.55977051 3.8197998 44.55704102 3.37280273 43.52392578 C1.48252996 39.15027061 -0.39663997 34.7722415 -2.25 30.3828125 C-2.51949463 29.74633789 -2.78898926 29.10986328 -3.06665039 28.45410156 C-3.75544532 26.82263836 -4.4385293 25.18876718 -5.12109375 23.5546875 C-6.36415471 20.83621774 -7.83057349 18.36790207 -9.375 15.8125 C-10.57690901 12.20677296 -10.70170315 9.6022565 -10.375 5.8125 C-7.3483387 1.17161933 -5.48811129 -0.48317259 0 0 Z " fill="#DA7862" transform="translate(586.375,295.1875)"/>
<path d="M0 0 C3.91658726 0.82842543 5.75596004 1.89072872 8.52734375 4.74609375 C10.01608667 7.7235796 9.76138165 10.12799609 9.3203125 13.38671875 C7.72253775 18.14068895 3.60998297 20.18170276 -0.47265625 22.74609375 C-1.05031738 23.1131543 -1.62797852 23.48021484 -2.22314453 23.85839844 C-5.55882275 25.97582142 -8.91247237 28.06215248 -12.27734375 30.1328125 C-16.31569938 32.62994641 -20.27844979 35.22835293 -24.22265625 37.87109375 C-25.14498047 38.48525146 -25.14498047 38.48525146 -26.0859375 39.11181641 C-29.05570778 41.09614852 -31.99716664 43.10961943 -34.90234375 45.1875 C-35.95679688 45.92871094 -37.01125 46.66992188 -38.09765625 47.43359375 C-39.01804687 48.09746094 -39.9384375 48.76132812 -40.88671875 49.4453125 C-43.94581145 50.98410082 -45.27398105 50.79114828 -48.47265625 49.74609375 C-48.80265625 48.09609375 -49.13265625 46.44609375 -49.47265625 44.74609375 C-48.95316406 44.31039062 -48.43367187 43.8746875 -47.8984375 43.42578125 C-44.53957456 40.55739922 -41.352091 37.77438402 -38.59765625 34.30859375 C-37.54578125 33.04015625 -37.54578125 33.04015625 -36.47265625 31.74609375 C-35.81265625 31.74609375 -35.15265625 31.74609375 -34.47265625 31.74609375 C-34.14265625 30.75609375 -33.81265625 29.76609375 -33.47265625 28.74609375 C-31.99414062 27.30639648 -31.99414062 27.30639648 -30.06640625 25.7421875 C-26.62156478 22.82466468 -23.4833513 19.74650712 -20.37890625 16.46875 C-19.49332031 15.54384766 -18.60773437 14.61894531 -17.6953125 13.66601562 C-16.32589821 12.22881827 -14.95663851 10.79127131 -13.60888672 9.33374023 C-5.06912292 0.12963621 -5.06912292 0.12963621 0 0 Z " fill="#DC93A5" transform="translate(702.47265625,334.25390625)"/>
<path d="M0 0 C0.86367188 -0.02835937 1.72734375 -0.05671875 2.6171875 -0.0859375 C5.96423211 0.52925139 6.99563063 1.7580142 9.125 4.375 C9.62670898 6.89282227 9.62670898 6.89282227 9.62109375 9.69140625 C9.62206055 11.20831055 9.62206055 11.20831055 9.62304688 12.75585938 C9.60306641 13.80580078 9.58308594 14.85574219 9.5625 15.9375 C9.56958984 16.99130859 9.57667969 18.04511719 9.58398438 19.13085938 C9.5197039 26.87912874 9.5197039 26.87912874 7.72290039 29.13647461 C4.66086837 31.50984183 2.02640468 31.77488428 -1.83984375 31.71875 C-5.38025427 31.1207536 -6.80936138 29.16968754 -8.875 26.375 C-11.69263401 20.87390502 -11.56960114 14.41141464 -10.875 8.375 C-8.73849833 3.11436852 -5.69067951 0.08443145 0 0 Z " fill="#FBF8F9" transform="translate(397.875,272.625)"/>
<path d="M0 0 C3.32441576 2.04579431 4.22893667 4.24918328 5.25 7.875 C5.96473998 11.29554131 6.33333293 14.5000042 6 18 C5.34 18.66 4.68 19.32 4 20 C3.67 19.01 3.34 18.02 3 17 C2.34 16.67 1.68 16.34 1 16 C1.165 16.825 1.33 17.65 1.5 18.5 C2.05896045 22.41272317 2.06807187 26.05183173 2 30 C1.67 30 1.34 30 1 30 C-0.32 23.07 -1.64 16.14 -3 9 C-5.97 8.505 -5.97 8.505 -9 8 C-8.67 7.34 -8.34 6.68 -8 6 C-5.69 6 -3.38 6 -1 6 C-0.67 4.68 -0.34 3.36 0 2 C-3.96 2 -7.92 2 -12 2 C-7.97056494 -0.68629004 -4.73139499 -0.66856668 0 0 Z " fill="#DBA0B0" transform="translate(448,360)"/>
<path d="M0 0 C0.33 0 0.66 0 1 0 C1.86432978 4.26647891 2.71841745 8.53484872 3.56347656 12.80517578 C3.85175245 14.2546166 4.14271658 15.70352567 4.43652344 17.15185547 C4.86077472 19.24569426 5.27500135 21.34131812 5.6875 23.4375 C6.06455078 25.32275391 6.06455078 25.32275391 6.44921875 27.24609375 C7.0387662 31.26421503 7.09425256 34.94713989 7 39 C6.67 39 6.34 39 6 39 C6 37.02 6 35.04 6 33 C5.34 33 4.68 33 4 33 C3.34 28.38 2.68 23.76 2 19 C-0.11126943 23.22253885 -0.2171997 25.14001523 -0.125 29.75 C-0.10695313 30.92046875 -0.08890625 32.0909375 -0.0703125 33.296875 C-0.03550781 34.63492188 -0.03550781 34.63492188 0 36 C-0.33 36 -0.66 36 -1 36 C-1.08040527 35.44650879 -1.16081055 34.89301758 -1.24365234 34.32275391 C-2.6280793 24.83320823 -4.0313331 15.38902676 -6 6 C-6 5.34 -6 4.68 -6 4 C-5.34 4 -4.68 4 -4 4 C-3.34 6.31 -2.68 8.62 -2 11 C-0.33657163 9.33657163 -0.63951903 7.2174291 -0.4375 4.9375 C-0.35371094 4.01839844 -0.26992188 3.09929687 -0.18359375 2.15234375 C-0.12300781 1.44207031 -0.06242187 0.73179687 0 0 Z " fill="#DB9FAE" transform="translate(419,411)"/>
<path d="M0 0 C1.98 0.495 1.98 0.495 4 1 C4 8.59 4 16.18 4 24 C3.34 24 2.68 24 2 24 C2 24.99 2 25.98 2 27 C1.34 27 0.68 27 0 27 C-1.59467014 23.81065971 -1.14285117 20.37382982 -1.125 16.875 C-1.12886719 16.14023437 -1.13273437 15.40546875 -1.13671875 14.6484375 C-1.12797741 9.68335463 -0.70218318 4.91528227 0 0 Z " fill="#6F99B9" transform="translate(264,480)"/>
<path d="M0 0 C0.495 0.144375 0.99 0.28875 1.5 0.4375 C1.5 1.0975 1.5 1.7575 1.5 2.4375 C4.14 2.7675 6.78 3.0975 9.5 3.4375 C8.51 4.9225 8.51 4.9225 7.5 6.4375 C0.57 5.9425 0.57 5.9425 -6.5 5.4375 C-6.5 4.7775 -6.5 4.1175 -6.5 3.4375 C-8.81 3.4375 -11.12 3.4375 -13.5 3.4375 C-13.83 2.7775 -14.16 2.1175 -14.5 1.4375 C-10.17377669 -3.06898262 -5.47980459 -1.23295603 0 0 Z " fill="#709AB9" transform="translate(340.5,555.5625)"/>
<path d="M0 0 C0.66 0 1.32 0 2 0 C2.50838564 2.03959477 3.00633886 4.08179138 3.5 6.125 C3.7784375 7.26195312 4.056875 8.39890625 4.34375 9.5703125 C4.96453765 12.81466698 5.12006768 15.70814457 5 19 C5.99 19 6.98 19 8 19 C8 15.37 8 11.74 8 8 C10.4294516 11.6441774 10.16179575 13.71241272 10 18 C11.65 18 13.3 18 15 18 C14.67 18.66 14.34 19.32 14 20 C13.34 20 12.68 20 12 20 C11.67 20.99 11.34 21.98 11 23 C12.65 23.33 14.3 23.66 16 24 C16 24.33 16 24.66 16 25 C14.741875 25.04125 13.48375 25.0825 12.1875 25.125 C11.47980469 25.14820313 10.77210938 25.17140625 10.04296875 25.1953125 C8 25 8 25 5 23 C1.8969524 15.63828708 0.35913654 7.9548744 0 0 Z " fill="#EBD07F" transform="translate(132,446)"/>
<path d="M0 0 C0.66 0 1.32 0 2 0 C2 0.66 2 1.32 2 2 C7.61 2.66 13.22 3.32 19 4 C19.33 5.32 19.66 6.64 20 8 C5.90696839 9.75897989 5.90696839 9.75897989 0 6 C-1 3 -1 3 0 0 Z " fill="#ECCA66" transform="translate(213,499)"/>
<path d="M0 0 C5.94 0.66 11.88 1.32 18 2 C18 2.66 18 3.32 18 4 C20.475 4.495 20.475 4.495 23 5 C22.01 6.485 22.01 6.485 21 8 C8.33029613 7.22095672 8.33029613 7.22095672 3 5 C3.33 4.34 3.66 3.68 4 3 C2.68 3 1.36 3 0 3 C0 2.01 0 1.02 0 0 Z " fill="#6E99BA" transform="translate(360,424)"/>
<path d="M0 0 C-0.33 0.99 -0.66 1.98 -1 3 C-1.7425 2.979375 -2.485 2.95875 -3.25 2.9375 C-5.70462279 2.99328688 -7.66109261 3.3069904 -10 4 C-10 4.66 -10 5.32 -10 6 C-13.63 6 -17.26 6 -21 6 C-19.68 5.34 -18.36 4.68 -17 4 C-17 3.01 -17 2.02 -17 1 C-15.10630916 0.63455089 -13.20991218 0.28310825 -11.3125 -0.0625 C-10.25675781 -0.25972656 -9.20101562 -0.45695312 -8.11328125 -0.66015625 C-5.08840784 -0.99034946 -2.92019489 -0.77474558 0 0 Z " fill="#ECCA65" transform="translate(210,412)"/>
<path d="M0 0 C0.33 0.66 0.66 1.32 1 2 C-0.98 2 -2.96 2 -5 2 C-4.34 3.65 -3.68 5.3 -3 7 C-6.3 7.33 -9.6 7.66 -13 8 C-13 6.33333333 -13 4.66666667 -13 3 C-16.3 3 -19.6 3 -23 3 C-23 2.67 -23 2.34 -23 2 C-15.27279225 0.76892281 -7.8316181 -0.2700558 0 0 Z " fill="#EBD179" transform="translate(180,362)"/>
<path d="M0 0 C1.03115279 3.26913624 0.9638984 5.86041348 0.5625 9.25 C0.46066406 10.14203125 0.35882813 11.0340625 0.25390625 11.953125 C0.17011719 12.62859375 0.08632813 13.3040625 0 14 C0.66 14.33 1.32 14.66 2 15 C2.66 12.36 3.32 9.72 4 7 C4.66 7.33 5.32 7.66 6 8 C4.66958425 17.17286652 4.66958425 17.17286652 1.875 20.625 C0.946875 21.305625 0.946875 21.305625 0 22 C-0.66 21.01 -1.32 20.02 -2 19 C-5.05429073 17.78715124 -5.05429073 17.78715124 -8 17 C-8 16.67 -8 16.34 -8 16 C-6.35 16 -4.7 16 -3 16 C-2.814375 14.5459375 -2.814375 14.5459375 -2.625 13.0625 C-2.00136191 8.65184223 -1.01253494 4.33522241 0 0 Z " fill="#89A9BF" transform="translate(364,543)"/>
<path d="M0 0 C0.5775 0.23589844 1.155 0.47179687 1.75 0.71484375 C1.1725 0.96234375 0.595 1.20984375 0 1.46484375 C-4.89126096 4.18221095 -6.8852117 7.7702864 -9.25 12.71484375 C-9.91 13.37484375 -10.57 14.03484375 -11.25 14.71484375 C-11.53202351 17.21356853 -11.53202351 17.21356853 -11.4375 20.02734375 C-11.43105469 20.97222656 -11.42460938 21.91710937 -11.41796875 22.890625 C-11.25747977 25.58907932 -10.84933915 28.08254622 -10.25 30.71484375 C-12.92626675 28.27129584 -14.04442896 26.42344238 -14.48828125 22.734375 C-14.77163166 14.30842865 -11.92428996 9.25008818 -6.25 3.15234375 C-2.84943873 -0.36112678 -2.84943873 -0.36112678 0 0 Z " fill="#E8D383" transform="translate(137.25,253.28515625)"/>
<path d="M0 0 C-0.33 0.99 -0.66 1.98 -1 3 C-1.66 3 -2.32 3 -3 3 C-2.67 4.32 -2.34 5.64 -2 7 C-5.87875927 7.9045614 -9.52002321 8.16425247 -13.5 8.1875 C-14.6034375 8.20167969 -15.706875 8.21585937 -16.84375 8.23046875 C-19.98252023 8.00127637 -22.17183214 7.33493744 -25 6 C-21.25 4.875 -21.25 4.875 -19 6 C-16.7927077 6.07092842 -14.58332548 6.08415025 -12.375 6.0625 C-10.59222656 6.04896484 -10.59222656 6.04896484 -8.7734375 6.03515625 C-7.40058594 6.01775391 -7.40058594 6.01775391 -6 6 C-6.33 5.01 -6.66 4.02 -7 3 C-10.63 2.67 -14.26 2.34 -18 2 C-18 1.67 -18 1.34 -18 1 C-11.97968656 0.39034801 -6.05329744 -0.13451772 0 0 Z " fill="#EBD281" transform="translate(239,501)"/>
<path d="M0 0 C0.36428777 1.9147688 0.71605306 3.83192293 1.0625 5.75 C1.25972656 6.81734375 1.45695313 7.8846875 1.66015625 8.984375 C1.97156937 11.74771905 1.8991416 13.40946617 1 16 C0.34 16 -0.32 16 -1 16 C-1.33 14.02 -1.66 12.04 -2 10 C-2.66 10 -3.32 10 -4 10 C-4.36814024 3.49618902 -4.36814024 3.49618902 -2.5625 1.0625 C-1 0 -1 0 0 0 Z " fill="#EDC965" transform="translate(216,427)"/>
<path d="M0 0 C0.33 0 0.66 0 1 0 C1 3.3 1 6.6 1 10 C-4.59338039 13.75394657 -8.76375828 14.63169032 -15.4375 14.75 C-16.26443359 14.77964844 -17.09136719 14.80929687 -17.94335938 14.83984375 C-19.96173177 14.9098451 -21.98086623 14.95726701 -24 15 C-24 14.67 -24 14.34 -24 14 C-21.45847565 13.52006844 -18.91678778 13.04103273 -16.375 12.5625 C-15.66214844 12.42779297 -14.94929687 12.29308594 -14.21484375 12.15429688 C-10.15004987 11.38981729 -6.08285925 10.66330363 -2 10 C-1.34 6.7 -0.68 3.4 0 0 Z " fill="#FBF8DF" transform="translate(250,535)"/>
<path d="M0 0 C0.33 0.66 0.66 1.32 1 2 C-3.32893185 7.18419194 -7.76564995 11.72706118 -13 16 C-13.66 15.34 -14.32 14.68 -15 14 C-13.33333333 12.33333333 -11.66666667 10.66666667 -10 9 C-9.1646875 8.1028125 -9.1646875 8.1028125 -8.3125 7.1875 C-7 6 -7 6 -5 6 C-4.67 5.01 -4.34 4.02 -4 3 C-1.9375 1.3125 -1.9375 1.3125 0 0 Z " fill="#D89FAE" transform="translate(673,360)"/>
<path d="M0 0 C2.35119399 3.52679099 2.21443452 5.02879485 2.125 9.1875 C2.10695312 10.27417969 2.08890625 11.36085938 2.0703125 12.48046875 C2.03550781 13.72763672 2.03550781 13.72763672 2 15 C1.01 15 0.02 15 -1 15 C-3.43326039 5.98468271 -3.43326039 5.98468271 -1.625 1.875 C-1.08875 1.25625 -0.5525 0.6375 0 0 Z " fill="#EDCB63" transform="translate(138,450)"/>
<path d="M0 0 C0 1.98 0 3.96 0 6 C-1.32 6.33 -2.64 6.66 -4 7 C-4 8.65 -4 10.3 -4 12 C-5.32 11.67 -6.64 11.34 -8 11 C-7.86060921 8.00309792 -7.69781403 5.77158295 -5.6328125 3.48828125 C-1.45487106 0 -1.45487106 0 0 0 Z " fill="#6F9ABB" transform="translate(278,450)"/>
<path d="M0 0 C0.66 0.33 1.32 0.66 2 1 C3.17466975 4.88544609 3.17293888 6.59396958 1.5625 10.375 C1.046875 11.24125 0.53125 12.1075 0 13 C-0.33 13 -0.66 13 -1 13 C-1.41694996 11.40119187 -1.80790856 9.79558739 -2.1875 8.1875 C-2.40792969 7.29417969 -2.62835938 6.40085937 -2.85546875 5.48046875 C-3 3 -3 3 -1.55078125 1.17578125 C-1.03902344 0.78777344 -0.52726562 0.39976562 0 0 Z " fill="#DD8FA3" transform="translate(410,375)"/>
<path d="M0 0 C0.33 0 0.66 0 1 0 C2.34298925 5.35506406 1.50639282 9.20689173 0.0625 14.375 C-0.13279297 15.11105469 -0.32808594 15.84710938 -0.52929688 16.60546875 C-1.00880196 18.40653661 -1.50292465 20.20370196 -2 22 C-2.66 21.67 -3.32 21.34 -4 21 C-2.87723429 13.94090922 -1.62436599 6.96156852 0 0 Z " fill="#89A9BC" transform="translate(382,463)"/>
<path d="M0 0 C0.86882812 0.00386719 1.73765625 0.00773437 2.6328125 0.01171875 C4.875 0.3125 4.875 0.3125 6.875 2.3125 C6.318125 2.24289062 5.76125 2.17328125 5.1875 2.1015625 C-0.97208042 1.66456524 -3.99647902 3.04637707 -8.69140625 7 C-9.16449219 7.433125 -9.63757813 7.86625 -10.125 8.3125 C-9.80453068 5.34815877 -9.59310442 3.75942322 -7.3984375 1.6640625 C-4.70714347 0.06408358 -3.10762145 -0.06029713 0 0 Z " fill="#E5F1F6" transform="translate(247.125,272.6875)"/>
<path d="M0 0 C2.64 0.33 5.28 0.66 8 1 C8 2.98 8 4.96 8 7 C5.6875 6.875 5.6875 6.875 3 6 C1.1875 2.9375 1.1875 2.9375 0 0 Z " fill="#ECCA64" transform="translate(174,363)"/>
<path d="M0 0 C0.33 0 0.66 0 1 0 C1.50938345 2.49840454 2.00763114 4.99823388 2.5 7.5 C2.64308594 8.19609375 2.78617187 8.8921875 2.93359375 9.609375 C3.88277373 14.49087203 4.13440046 19.02718299 4 24 C3.67 24 3.34 24 3 24 C3 22.02 3 20.04 3 18 C2.34 18 1.68 18 1 18 C0.22959149 11.93303301 -0.09706112 6.11485027 0 0 Z " fill="#DEADBB" transform="translate(422,426)"/>
<path d="M0 0 C0.33 0 0.66 0 1 0 C3.25768639 7.34103058 4.5697663 14.3299717 5 22 C1.63678891 16.95518336 0.626286 13.80671804 0.375 7.8125 C0.33632812 7.06291016 0.29765625 6.31332031 0.2578125 5.54101562 C0.16371784 3.69440801 0.08077681 1.8472381 0 0 Z " fill="#EDD587" transform="translate(135,431)"/>
<path d="M0 0 C2.52588702 2.36292656 3.88820837 3.66462511 5 7 C4.34 7 3.68 7 3 7 C3 6.34 3 5.68 3 5 C2.34 5 1.68 5 1 5 C1.33 7.31 1.66 9.62 2 12 C1.01 11.67 0.02 11.34 -1 11 C-2.1875 8.4375 -2.1875 8.4375 -3 6 C-2.01 6 -1.02 6 0 6 C0 4.02 0 2.04 0 0 Z " fill="#EBD37F" transform="translate(212,494)"/>
<path d="M0 0 C0.66 0 1.32 0 2 0 C1 3 1 3 -2 5 C-2.2502157 8.08365871 -2.2502157 8.08365871 -2 11 C-1.34 11 -0.68 11 0 11 C-0.33 11.99 -0.66 12.98 -1 14 C-5 8.5 -5 8.5 -5 4 C-3.35 3.34 -1.7 2.68 0 2 C0 1.34 0 0.68 0 0 Z " fill="#E7D17D" transform="translate(127,306)"/>
<path d="M0 0 C2.72977064 -0.08126109 5.4571017 -0.14061663 8.1875 -0.1875 C9.34088867 -0.22520508 9.34088867 -0.22520508 10.51757812 -0.26367188 C15.2197028 -0.32421425 18.11834041 0.03624789 22 3 C18.25 4.125 18.25 4.125 16 3 C16 2.34 16 1.68 16 1 C10.72 1 5.44 1 0 1 C0 0.67 0 0.34 0 0 Z " fill="#E1EBF2" transform="translate(312,550)"/>
<path d="M0 0 C4.12645535 3.48204999 4.32575913 7.86956945 5 13 C5.12964365 15.36704203 5.10313298 17.62794153 5 20 C4.67 20 4.34 20 4 20 C3.32749476 17.41806023 2.66182099 14.83467929 2 12.25 C1.71382812 11.15558594 1.71382812 11.15558594 1.421875 10.0390625 C0.53484036 6.55428354 0 3.61876278 0 0 Z " fill="#F8F1D4" transform="translate(162,461)"/>
<path d="M0 0 C2.26954631 3.40431947 2.36549949 5.16524202 2.625 9.1875 C2.69976562 10.27417969 2.77453125 11.36085938 2.8515625 12.48046875 C2.92503906 13.72763672 2.92503906 13.72763672 3 15 C1.51171875 13.88671875 1.51171875 13.88671875 0 12 C-0.29296875 9.08203125 -0.29296875 9.08203125 -0.1875 5.8125 C-0.16042969 4.72582031 -0.13335937 3.63914062 -0.10546875 2.51953125 C-0.07066406 1.68808594 -0.03585937 0.85664062 0 0 Z " fill="#DAAAB7" transform="translate(481,526)"/>
<path d="M0 0 C0.33 0 0.66 0 1 0 C1.12036664 5.77759884 0.8320582 11.27959989 0 17 C-0.33 17 -0.66 17 -1 17 C-1.22262606 14.91814549 -1.42757926 12.83439574 -1.625 10.75 C-1.74101563 9.58984375 -1.85703125 8.4296875 -1.9765625 7.234375 C-1.99955595 4.06127909 -1.69705154 2.61682756 0 0 Z " fill="#97BFB8" transform="translate(547,530)"/>
<path d="M0 0 C2.35953094 2.35953094 2.49141413 3.77895617 3 7 C5.64 7 8.28 7 11 7 C7.86501708 8.85776765 5.62528568 9.20140476 2 9 C0.50178941 5.62902617 0 3.79557881 0 0 Z " fill="#E7D68D" transform="translate(186,411)"/>
<path d="M0 0 C0.33 0.99 0.66 1.98 1 3 C-0.1446875 3.86625 -0.1446875 3.86625 -1.3125 4.75 C-3.66200917 6.71703093 -5.29323505 8.48476744 -7 11 C-7.99 10.67 -8.98 10.34 -10 10 C-6.7 6.7 -3.4 3.4 0 0 Z " fill="#D69EAD" transform="translate(686,347)"/>
<path d="M0 0 C0.33 0 0.66 0 1 0 C1.08090971 1.62418745 1.13914995 3.24951745 1.1875 4.875 C1.22230469 5.77992188 1.25710937 6.68484375 1.29296875 7.6171875 C1.19628906 8.40351562 1.09960938 9.18984375 1 10 C-2.4352048 12.29013653 -3.985331 12.17842973 -8 12 C-5 10 -5 10 -2 10 C-1.34 6.7 -0.68 3.4 0 0 Z " fill="#F7EEC7" transform="translate(250,535)"/>
<path d="M0 0 C0.59732819 2.76264289 1 5.16032769 1 8 C-1.64 6.02 -4.28 4.04 -7 2 C-3 0 -3 0 0 0 Z " fill="#F9F1D5" transform="translate(179,285)"/>
<path d="M0 0 C4.25 6.375 4.25 6.375 4.125 11.1875 C4.10695312 12.08855469 4.08890625 12.98960937 4.0703125 13.91796875 C4.03550781 14.94857422 4.03550781 14.94857422 4 16 C3.67 16 3.34 16 3 16 C2.49411853 14.08487728 1.99551609 12.16783078 1.5 10.25 C1.2215625 9.18265625 0.943125 8.1153125 0.65625 7.015625 C0 4 0 4 0 0 Z " fill="#F4E9C0" transform="translate(243,504)"/>
<path d="M0 0 C0.66 0 1.32 0 2 0 C2.05399736 1.45792884 2.09279177 2.91642712 2.125 4.375 C2.14820313 5.18710937 2.17140625 5.99921875 2.1953125 6.8359375 C2 9 2 9 0 11 C-1.76062164 7.67438135 -2.10784228 6.40826005 -1.125 2.6875 C-0.568125 1.3571875 -0.568125 1.3571875 0 0 Z " fill="#DD8EA1" transform="translate(458,411)"/>
<path d="M0 0 C0.33 1.32 0.66 2.64 1 4 C-0.21484375 5.921875 -0.21484375 5.921875 -1.9375 7.75 C-2.50339844 8.36359375 -3.06929687 8.9771875 -3.65234375 9.609375 C-4.31943359 10.29773438 -4.31943359 10.29773438 -5 11 C-5.66 10.67 -6.32 10.34 -7 10 C-3.535 5.05 -3.535 5.05 0 0 Z " fill="#96C2B9" transform="translate(586,471)"/>
<path d="M0 0 C0.33 0 0.66 0 1 0 C1.24803781 2.79117245 1.47414334 5.58115074 1.6875 8.375 C1.79674805 9.56609375 1.79674805 9.56609375 1.90820312 10.78125 C2.07421875 13.0859375 2.07421875 13.0859375 2 17 C1.01 17.66 0.02 18.32 -1 19 C-0.67 12.73 -0.34 6.46 0 0 Z " fill="#A9CBC5" transform="translate(548,450)"/>
<path d="M0 0 C0.66 0 1.32 0 2 0 C4.28571429 8.42857143 4.28571429 8.42857143 4 13 C0.25474201 9.25474201 0.31090051 5.01729091 0 0 Z " fill="#DAA3B2" transform="translate(362,293)"/>
<path d="M0 0 C0.99 0.495 0.99 0.495 2 1 C2.39460023 3.32375692 2.72230092 5.6593935 3 8 C3.226875 8.7425 3.45375 9.485 3.6875 10.25 C4 12 4 12 2 15 C1.34 10.05 0.68 5.1 0 0 Z " fill="#DFADBB" transform="translate(451,398)"/>
<path d="M0 0 C0.33 0 0.66 0 1 0 C1 2.64 1 5.28 1 8 C-1.35438733 9.42944945 -2.48032433 10.08661261 -5.25 9.625 C-5.8275 9.41875 -6.405 9.2125 -7 9 C-5.5459375 8.443125 -5.5459375 8.443125 -4.0625 7.875 C-0.68859031 6.28947638 -0.68859031 6.28947638 -0.125 2.8125 C-0.08375 1.884375 -0.0425 0.95625 0 0 Z " fill="#89A9BE" transform="translate(332,501)"/>
<path d="M0 0 C0.66 0.33 1.32 0.66 2 1 C2 2.98 2 4.96 2 7 C0.68 7 -0.64 7 -2 7 C-1.34 4.69 -0.68 2.38 0 0 Z " fill="#EDCA65" transform="translate(210,493)"/>
<path d="M0 0 C5.75 -0.125 5.75 -0.125 8 1 C8 1.66 8 2.32 8 3 C8.99 3.33 9.98 3.66 11 4 C7.0507432 3.44894091 3.65079826 2.61064629 0 1 C0 0.67 0 0.34 0 0 Z " fill="#DCEAF1" transform="translate(300,546)"/>
<path d="M0 0 C2.97 0.33 5.94 0.66 9 1 C9 1.99 9 2.98 9 4 C5.17902761 3.46930939 2.93828597 2.50298434 0 0 Z " fill="#96ADC2" transform="translate(347,428)"/>
<path d="M0 0 C2.64752004 2.57784846 4.94432065 4.91648098 7 8 C4.03 7.505 4.03 7.505 1 7 C0.67 4.69 0.34 2.38 0 0 Z " fill="#F9F3D9" transform="translate(176,532)"/>
<path d="M0 0 C0.33 0 0.66 0 1 0 C1.36923077 7.50769231 1.36923077 7.50769231 -0.5 10 C-0.995 10.33 -1.49 10.66 -2 11 C-1.125 3.375 -1.125 3.375 0 0 Z " fill="#86A2B8" transform="translate(374,501)"/>
<path d="M0 0 C-0.66 1.32 -1.32 2.64 -2 4 C-3.98 4 -5.96 4 -8 4 C-6.4425489 0.88509781 -3.40085499 0 0 0 Z " fill="#86A5BD" transform="translate(307,422)"/>
<path d="M0 0 C0.33 0 0.66 0 1 0 C1.33 2.64 1.66 5.28 2 8 C2.99 8.33 3.98 8.66 5 9 C3.02 9 1.04 9 -1 9 C-0.67 6.03 -0.34 3.06 0 0 Z " fill="#EBD47F" transform="translate(191,404)"/>
<path d="M0 0 C0.33 0 0.66 0 1 0 C1 1.65 1 3.3 1 5 C2.98 5 4.96 5 7 5 C7 5.33 7 5.66 7 6 C3.7 6.33 0.4 6.66 -3 7 C-2.34 6.67 -1.68 6.34 -1 6 C-0.34227572 2.97065509 -0.34227572 2.97065509 0 0 Z " fill="#FCF7E4" transform="translate(196,405)"/>
<path d="M0 0 C1.32 0 2.64 0 4 0 C3.67 1.65 3.34 3.3 3 5 C2.01 4.67 1.02 4.34 0 4 C0 2.68 0 1.36 0 0 Z " fill="#EDCA65" transform="translate(184,535)"/>
<path d="M0 0 C2.7972908 2.06756277 3.02692273 3.14440371 3.6875 6.6875 C3.790625 7.780625 3.89375 8.87375 4 10 C1.2027092 7.93243723 0.97307727 6.85559629 0.3125 3.3125 C0.209375 2.219375 0.10625 1.12625 0 0 Z " fill="#FCF6DE" transform="translate(174,510)"/>
<path d="M0 0 C1.32 0 2.64 0 4 0 C4 1.32 4 2.64 4 4 C3.01 4.33 2.02 4.66 1 5 C0.67 3.35 0.34 1.7 0 0 Z " fill="#6D9BBE" transform="translate(306,476)"/>
<path d="M0 0 C0.33 0.66 0.66 1.32 1 2 C-0.68474722 5.36949443 -1.8191658 6.87944386 -5 9 C-3.7508258 5.54074837 -2.32472205 2.85306797 0 0 Z " fill="#E1F3F2" transform="translate(569,437)"/>
<path d="M0 0 C0.33 0.99 0.66 1.98 1 3 C-0.65 4.32 -2.3 5.64 -4 7 C-4.66 6.67 -5.32 6.34 -6 6 C-4.02 4.02 -2.04 2.04 0 0 Z " fill="#F8EFD1" transform="translate(182,317)"/>
</svg>
